<svg xmlns="http://www.w3.org/2000/svg" xmlns:xlink="http://www.w3.org/1999/xlink" width="500" zoomAndPan="magnify" viewBox="0 0 375 374.999991" height="500" preserveAspectRatio="xMidYMid meet" version="1.0"><path fill="#000000" d="M 217.621094 276.082031 C 213.890625 277.054688 210.101562 277.585938 206.25 277.679688 C 204.742188 277.796875 203.242188 277.71875 201.75 277.453125 C 200.257812 277.191406 198.824219 276.742188 197.449219 276.113281 C 196.070312 275.488281 194.792969 274.695312 193.613281 273.746094 C 192.4375 272.792969 191.394531 271.710938 190.492188 270.492188 C 183.113281 260.710938 189.097656 245.539062 194.082031 236.15625 L 115.292969 109.777344 L 94.347656 78.832031 L 64.230469 81.230469 C 63.578125 81.296875 62.929688 81.300781 62.277344 81.238281 C 61.625 81.175781 60.988281 81.050781 60.363281 80.863281 C 59.738281 80.671875 59.136719 80.421875 58.5625 80.109375 C 57.988281 79.800781 57.449219 79.433594 56.945312 79.015625 C 56.445312 78.597656 55.988281 78.132812 55.578125 77.621094 C 55.171875 77.113281 54.816406 76.566406 54.515625 75.984375 C 54.214844 75.402344 53.976562 74.796875 53.800781 74.167969 C 53.621094 73.539062 53.507812 72.898438 53.457031 72.246094 C 53.402344 71.589844 53.414062 70.933594 53.488281 70.28125 C 53.5625 69.625 53.699219 68.988281 53.902344 68.359375 C 54.105469 67.734375 54.363281 67.132812 54.683594 66.558594 C 55.003906 65.984375 55.378906 65.445312 55.804688 64.945312 C 56.230469 64.441406 56.703125 63.988281 57.21875 63.582031 C 57.734375 63.171875 58.285156 62.820312 58.871094 62.523438 C 59.457031 62.222656 60.066406 61.984375 60.699219 61.808594 C 61.332031 61.628906 61.976562 61.515625 62.632812 61.464844 L 98.539062 58.46875 C 99.425781 58.410156 100.308594 58.464844 101.183594 58.632812 C 102.058594 58.800781 102.894531 59.078125 103.699219 59.460938 C 104.503906 59.847656 105.246094 60.328125 105.925781 60.902344 C 106.605469 61.480469 107.199219 62.132812 107.710938 62.863281 L 127.660156 93.207031 L 327.128906 33.3125 C 327.871094 33.089844 328.628906 32.953125 329.402344 32.910156 C 330.175781 32.867188 330.945312 32.914062 331.707031 33.050781 C 332.472656 33.191406 333.207031 33.417969 333.917969 33.730469 C 334.625 34.046875 335.289062 34.4375 335.902344 34.910156 C 337.167969 35.8125 338.171875 36.945312 338.90625 38.316406 C 339.644531 39.683594 340.039062 41.144531 340.09375 42.699219 L 342.6875 198.621094 C 342.6875 199.164062 342.648438 199.703125 342.566406 200.242188 C 342.480469 200.777344 342.355469 201.304688 342.1875 201.820312 C 342.019531 202.335938 341.8125 202.835938 341.566406 203.320312 C 341.316406 203.800781 341.03125 204.261719 340.710938 204.699219 C 340.390625 205.136719 340.035156 205.546875 339.648438 205.929688 C 339.261719 206.308594 338.847656 206.65625 338.40625 206.972656 C 337.964844 207.285156 337.5 207.5625 337.011719 207.804688 C 336.527344 208.042969 336.023438 208.242188 335.503906 208.402344 L 212.433594 244.9375 C 210.078125 249.210938 208.414062 253.734375 207.445312 258.515625 C 209.210938 258.367188 210.941406 258.035156 212.632812 257.515625 L 345.679688 217.585938 C 346.3125 217.414062 346.960938 217.304688 347.617188 217.253906 C 348.273438 217.207031 348.925781 217.21875 349.582031 217.296875 C 350.234375 217.371094 350.875 217.507812 351.503906 217.707031 C 352.132812 217.902344 352.734375 218.160156 353.3125 218.472656 C 353.894531 218.785156 354.4375 219.148438 354.949219 219.566406 C 355.457031 219.984375 355.921875 220.445312 356.347656 220.949219 C 356.769531 221.457031 357.140625 221.996094 357.457031 222.574219 C 357.777344 223.148438 358.039062 223.75 358.246094 224.375 C 358.429688 225.003906 358.546875 225.644531 358.605469 226.296875 C 358.664062 226.953125 358.65625 227.605469 358.585938 228.253906 C 358.511719 228.90625 358.378906 229.546875 358.183594 230.171875 C 357.984375 230.796875 357.730469 231.394531 357.414062 231.96875 C 357.101562 232.546875 356.730469 233.082031 356.3125 233.585938 C 355.890625 234.089844 355.425781 234.542969 354.914062 234.953125 C 354.402344 235.363281 353.859375 235.722656 353.277344 236.023438 C 352.695312 236.328125 352.089844 236.570312 351.460938 236.753906 Z M 263.496094 274.886719 C 261.96875 274.042969 260.386719 273.316406 258.753906 272.707031 C 257.117188 272.097656 255.449219 271.613281 253.742188 271.25 C 252.035156 270.890625 250.308594 270.65625 248.570312 270.550781 C 246.828125 270.445312 245.085938 270.472656 243.351562 270.625 C 241.613281 270.777344 239.894531 271.058594 238.199219 271.464844 C 236.503906 271.871094 234.84375 272.402344 233.226562 273.054688 C 231.609375 273.710938 230.046875 274.480469 228.542969 275.363281 C 227.039062 276.25 225.609375 277.238281 224.253906 278.335938 C 222.894531 279.433594 221.628906 280.625 220.445312 281.910156 C 219.265625 283.195312 218.1875 284.5625 217.207031 286.007812 C 216.230469 287.453125 215.363281 288.964844 214.609375 290.539062 C 213.855469 292.113281 213.21875 293.734375 212.703125 295.402344 C 212.191406 297.070312 211.800781 298.769531 211.539062 300.492188 C 211.273438 302.21875 211.140625 303.957031 211.132812 305.703125 C 211.128906 307.449219 211.25 309.183594 211.5 310.914062 C 211.753906 312.640625 212.128906 314.339844 212.632812 316.011719 C 213.28125 318.25 214.140625 320.398438 215.210938 322.464844 C 216.28125 324.53125 217.546875 326.472656 219 328.289062 C 220.457031 330.101562 222.074219 331.757812 223.855469 333.253906 C 225.636719 334.75 227.546875 336.058594 229.585938 337.175781 C 232.195312 338.578125 234.933594 339.648438 237.800781 340.394531 C 240.667969 341.136719 243.582031 341.527344 246.542969 341.566406 C 250.011719 341.523438 253.402344 340.992188 256.714844 339.96875 C 257.828125 339.640625 258.921875 339.253906 259.996094 338.816406 C 261.070312 338.378906 262.121094 337.886719 263.144531 337.34375 C 264.171875 336.804688 265.167969 336.210938 266.136719 335.570312 C 267.105469 334.929688 268.039062 334.242188 268.941406 333.511719 C 269.839844 332.777344 270.703125 332.003906 271.527344 331.183594 C 272.351562 330.367188 273.132812 329.511719 273.871094 328.617188 C 274.609375 327.722656 275.304688 326.792969 275.953125 325.828125 C 276.601562 324.863281 277.199219 323.871094 277.75 322.847656 C 278.300781 321.828125 278.796875 320.78125 279.246094 319.707031 C 279.691406 318.636719 280.085938 317.542969 280.425781 316.433594 C 280.765625 315.324219 281.046875 314.199219 281.277344 313.058594 C 281.503906 311.921875 281.675781 310.773438 281.792969 309.617188 C 281.910156 308.464844 281.96875 307.304688 281.96875 306.144531 C 281.96875 304.980469 281.914062 303.824219 281.800781 302.667969 C 281.691406 301.511719 281.519531 300.363281 281.296875 299.226562 C 281.070312 298.085938 280.789062 296.960938 280.453125 295.847656 C 279.824219 293.617188 278.976562 291.472656 277.914062 289.414062 C 276.847656 287.351562 275.589844 285.421875 274.128906 283.621094 C 272.671875 281.820312 271.050781 280.183594 269.257812 278.710938 C 267.46875 277.238281 265.546875 275.964844 263.496094 274.886719 Z M 371.011719 269.097656 C 370.382812 266.851562 369.539062 264.691406 368.476562 262.617188 C 367.414062 260.542969 366.152344 258.597656 364.695312 256.777344 C 363.238281 254.960938 361.613281 253.308594 359.824219 251.816406 C 358.03125 250.328125 356.109375 249.035156 354.054688 247.933594 C 352.007812 246.847656 349.871094 245.964844 347.652344 245.289062 C 345.433594 244.613281 343.171875 244.152344 340.863281 243.914062 C 338.554688 243.675781 336.246094 243.65625 333.9375 243.863281 C 331.625 244.070312 329.355469 244.496094 327.128906 245.136719 C 326.007812 245.460938 324.90625 245.839844 323.824219 246.273438 C 322.742188 246.707031 321.6875 247.191406 320.652344 247.726562 C 319.617188 248.265625 318.613281 248.851562 317.636719 249.484375 C 316.660156 250.121094 315.714844 250.804688 314.804688 251.53125 C 313.894531 252.261719 313.023438 253.03125 312.191406 253.847656 C 311.355469 254.660156 310.566406 255.515625 309.816406 256.410156 C 309.066406 257.300781 308.363281 258.226562 307.703125 259.191406 C 307.042969 260.152344 306.433594 261.144531 305.875 262.167969 C 305.3125 263.1875 304.804688 264.234375 304.347656 265.308594 C 303.886719 266.378906 303.484375 267.472656 303.132812 268.582031 C 302.78125 269.695312 302.488281 270.824219 302.246094 271.964844 C 302.007812 273.105469 301.824219 274.253906 301.699219 275.414062 C 301.570312 276.574219 301.503906 277.734375 301.488281 278.902344 C 301.476562 280.066406 301.523438 281.230469 301.625 282.394531 C 301.726562 283.554688 301.886719 284.707031 302.101562 285.855469 C 302.316406 287 302.589844 288.132812 302.914062 289.253906 C 303.242188 290.371094 303.625 291.472656 304.058594 292.554688 C 304.496094 293.636719 304.980469 294.691406 305.519531 295.726562 C 306.0625 296.761719 306.648438 297.765625 307.289062 298.742188 C 307.925781 299.714844 308.609375 300.65625 309.339844 301.566406 C 310.070312 302.472656 310.84375 303.34375 311.660156 304.175781 C 312.476562 305.007812 313.332031 305.796875 314.226562 306.546875 C 315.121094 307.292969 316.050781 307.996094 317.011719 308.652344 C 317.976562 309.308594 318.96875 309.914062 319.992188 310.472656 C 321.015625 311.03125 322.0625 311.539062 323.132812 311.996094 C 324.207031 312.449219 325.300781 312.851562 326.410156 313.199219 C 327.523438 313.546875 328.652344 313.835938 329.792969 314.074219 C 330.933594 314.3125 332.082031 314.492188 333.242188 314.613281 C 334.398438 314.738281 335.5625 314.804688 336.726562 314.8125 C 337.890625 314.820312 339.054688 314.773438 340.214844 314.667969 C 341.375 314.5625 342.527344 314.398438 343.671875 314.179688 C 344.816406 313.960938 345.945312 313.683594 347.0625 313.355469 C 348.179688 313.023438 349.277344 312.636719 350.359375 312.199219 C 351.4375 311.761719 352.492188 311.269531 353.523438 310.726562 C 354.554688 310.183594 355.554688 309.589844 356.527344 308.949219 C 357.5 308.308594 358.441406 307.621094 359.347656 306.886719 C 360.25 306.152344 361.117188 305.375 361.945312 304.554688 C 362.777344 303.738281 363.5625 302.878906 364.308594 301.980469 C 365.050781 301.085938 365.75 300.152344 366.402344 299.1875 C 367.054688 298.222656 367.660156 297.226562 368.214844 296.199219 C 368.769531 295.175781 369.273438 294.125 369.722656 293.050781 C 370.175781 291.972656 370.574219 290.878906 370.917969 289.765625 C 371.261719 288.652344 371.550781 287.523438 371.78125 286.378906 C 372.015625 285.238281 372.191406 284.085938 372.3125 282.925781 C 372.429688 281.765625 372.492188 280.605469 372.5 279.4375 C 372.503906 278.273438 372.453125 277.109375 372.34375 275.949219 C 372.234375 274.785156 372.066406 273.632812 371.84375 272.488281 C 371.621094 271.34375 371.34375 270.214844 371.011719 269.097656 Z M 60.4375 209.203125 L 125.066406 209.203125 C 125.722656 209.203125 126.371094 209.136719 127.011719 209.011719 C 127.65625 208.882812 128.277344 208.691406 128.882812 208.441406 C 129.488281 208.191406 130.0625 207.882812 130.605469 207.519531 C 131.152344 207.15625 131.65625 206.742188 132.117188 206.277344 C 132.582031 205.816406 132.996094 205.3125 133.359375 204.765625 C 133.722656 204.222656 134.03125 203.644531 134.28125 203.039062 C 134.53125 202.433594 134.71875 201.808594 134.847656 201.167969 C 134.976562 200.523438 135.039062 199.875 135.039062 199.21875 C 135.039062 198.566406 134.976562 197.914062 134.847656 197.273438 C 134.71875 196.628906 134.53125 196.003906 134.28125 195.398438 C 134.03125 194.792969 133.722656 194.21875 133.359375 193.675781 C 132.996094 193.128906 132.582031 192.625 132.117188 192.160156 C 131.65625 191.699219 131.152344 191.285156 130.605469 190.921875 C 130.0625 190.554688 129.488281 190.25 128.882812 189.996094 C 128.277344 189.746094 127.65625 189.558594 127.011719 189.429688 C 126.371094 189.300781 125.722656 189.238281 125.066406 189.238281 L 60.4375 189.238281 C 59.785156 189.238281 59.136719 189.300781 58.492188 189.429688 C 57.851562 189.558594 57.226562 189.746094 56.621094 189.996094 C 56.015625 190.25 55.441406 190.554688 54.898438 190.921875 C 54.351562 191.285156 53.851562 191.699219 53.386719 192.160156 C 52.921875 192.625 52.511719 193.128906 52.144531 193.675781 C 51.78125 194.21875 51.476562 194.792969 51.226562 195.398438 C 50.972656 196.003906 50.785156 196.628906 50.65625 197.273438 C 50.53125 197.914062 50.464844 198.566406 50.464844 199.21875 C 50.394531 199.917969 50.398438 200.613281 50.476562 201.308594 C 50.550781 202.003906 50.699219 202.683594 50.917969 203.347656 C 51.136719 204.011719 51.421875 204.644531 51.773438 205.25 C 52.128906 205.855469 52.539062 206.414062 53.007812 206.933594 C 53.480469 207.449219 54 207.914062 54.566406 208.324219 C 55.132812 208.730469 55.738281 209.074219 56.375 209.359375 C 57.015625 209.640625 57.679688 209.851562 58.363281 209.992188 C 59.046875 210.136719 59.738281 210.203125 60.4375 210.199219 Z M 161.96875 225.972656 L 10.171875 225.972656 C 9.519531 225.972656 8.871094 226.035156 8.226562 226.164062 C 7.585938 226.292969 6.960938 226.480469 6.355469 226.734375 C 5.75 226.984375 5.175781 227.289062 4.632812 227.65625 C 4.085938 228.019531 3.582031 228.433594 3.121094 228.894531 C 2.65625 229.359375 2.242188 229.863281 1.878906 230.410156 C 1.515625 230.953125 1.210938 231.527344 0.957031 232.136719 C 0.707031 232.742188 0.519531 233.363281 0.390625 234.007812 C 0.261719 234.648438 0.199219 235.300781 0.199219 235.953125 C 0.199219 236.609375 0.261719 237.257812 0.390625 237.902344 C 0.519531 238.546875 0.707031 239.167969 0.957031 239.773438 C 1.210938 240.378906 1.515625 240.957031 1.878906 241.5 C 2.242188 242.046875 2.65625 242.550781 3.121094 243.011719 C 3.582031 243.476562 4.085938 243.890625 4.632812 244.253906 C 5.175781 244.617188 5.75 244.925781 6.355469 245.175781 C 6.960938 245.429688 7.585938 245.617188 8.226562 245.746094 C 8.871094 245.875 9.519531 245.9375 10.171875 245.9375 L 161.96875 245.9375 C 162.621094 245.9375 163.273438 245.875 163.914062 245.746094 C 164.554688 245.617188 165.179688 245.429688 165.785156 245.175781 C 166.390625 244.925781 166.964844 244.617188 167.507812 244.253906 C 168.054688 243.890625 168.558594 243.476562 169.019531 243.011719 C 169.484375 242.550781 169.898438 242.046875 170.261719 241.5 C 170.625 240.957031 170.933594 240.378906 171.183594 239.773438 C 171.433594 239.167969 171.621094 238.546875 171.75 237.902344 C 171.878906 237.257812 171.941406 236.609375 171.941406 235.953125 C 171.878906 235.34375 171.761719 234.742188 171.589844 234.148438 C 171.417969 233.558594 171.191406 232.988281 170.914062 232.441406 C 170.636719 231.890625 170.308594 231.371094 169.9375 230.882812 C 169.5625 230.394531 169.148438 229.945312 168.691406 229.535156 C 168.234375 229.121094 167.742188 228.753906 167.21875 228.433594 C 166.691406 228.113281 166.140625 227.84375 165.566406 227.625 C 164.992188 227.40625 164.402344 227.242188 163.796875 227.132812 C 163.191406 227.019531 162.582031 226.96875 161.96875 226.972656 Z M 125.066406 262.707031 L 79.585938 262.707031 C 78.933594 262.707031 78.285156 262.769531 77.640625 262.898438 C 77 263.027344 76.375 263.214844 75.769531 263.46875 C 75.167969 263.71875 74.589844 264.027344 74.046875 264.390625 C 73.503906 264.753906 73 265.167969 72.535156 265.632812 C 72.074219 266.09375 71.660156 266.597656 71.296875 267.144531 C 70.929688 267.6875 70.625 268.265625 70.375 268.871094 C 70.121094 269.476562 69.933594 270.097656 69.804688 270.742188 C 69.679688 271.386719 69.613281 272.035156 69.613281 272.691406 C 69.613281 273.34375 69.679688 273.996094 69.804688 274.636719 C 69.933594 275.28125 70.121094 275.902344 70.375 276.511719 C 70.625 277.117188 70.929688 277.691406 71.296875 278.234375 C 71.660156 278.78125 72.074219 279.285156 72.535156 279.75 C 73 280.210938 73.503906 280.625 74.046875 280.988281 C 74.589844 281.355469 75.167969 281.660156 75.769531 281.914062 C 76.375 282.164062 77 282.351562 77.640625 282.480469 C 78.285156 282.609375 78.933594 282.671875 79.585938 282.671875 L 125.066406 282.671875 C 125.722656 282.671875 126.371094 282.609375 127.011719 282.480469 C 127.65625 282.351562 128.277344 282.164062 128.882812 281.914062 C 129.488281 281.660156 130.0625 281.355469 130.605469 280.988281 C 131.152344 280.625 131.65625 280.210938 132.117188 279.75 C 132.582031 279.285156 132.996094 278.78125 133.359375 278.234375 C 133.722656 277.691406 134.03125 277.117188 134.28125 276.511719 C 134.53125 275.902344 134.71875 275.28125 134.847656 274.636719 C 134.976562 273.996094 135.039062 273.34375 135.039062 272.691406 C 135.039062 272.035156 134.976562 271.386719 134.847656 270.742188 C 134.71875 270.097656 134.53125 269.476562 134.28125 268.871094 C 134.03125 268.265625 133.722656 267.6875 133.359375 267.144531 C 132.996094 266.597656 132.582031 266.09375 132.117188 265.632812 C 131.65625 265.167969 131.152344 264.753906 130.605469 264.390625 C 130.0625 264.027344 129.488281 263.71875 128.882812 263.46875 C 128.277344 263.214844 127.65625 263.027344 127.011719 262.898438 C 126.371094 262.769531 125.722656 262.707031 125.066406 262.707031 Z M 125.066406 262.707031 " fill-opacity="1" fill-rule="nonzero"/></svg>