<?xml version="1.0" standalone="no"?>
<!DOCTYPE svg PUBLIC "-//W3C//DTD SVG 20010904//EN"
 "http://www.w3.org/TR/2001/REC-SVG-20010904/DTD/svg10.dtd">
<svg version="1.0" xmlns="http://www.w3.org/2000/svg"
 width="6677.000000pt" height="4924.000000pt" viewBox="0 0 6677.000000 4924.000000"
 preserveAspectRatio="xMidYMid meet">

<g transform="translate(0.000000,4924.000000) scale(0.100000,-0.100000)"
fill="#000000" stroke="none">
<path d="M30147 43734 c-1456 -251 -2932 -682 -4301 -1253 -299 -125 -356
-152 -451 -216 -169 -112 -281 -274 -322 -465 -21 -99 -19 610 -15 -6395 2
-4463 0 -4959 -24 -5260 -13 -158 -65 -302 -152 -415 -23 -30 -192 -201 -377
-380 -565 -548 -1588 -1588 -1613 -1641 -30 -63 -29 -131 4 -197 32 -65 73
-97 149 -117 53 -13 1110 -15 10355 -15 6992 0 10309 4 10340 11 101 23 168
101 177 208 9 98 -3 119 -171 291 -84 85 -285 295 -447 465 -394 413 -622 635
-869 847 -113 96 -226 198 -252 224 -184 193 -334 486 -398 779 -55 258 -52
-88 -48 5010 5 7243 7 6525 -19 6627 -31 123 -81 215 -161 300 -115 122 -207
172 -676 368 -1333 554 -2750 965 -4154 1205 -426 73 -515 60 -560 -84 -20
-65 -20 -229 -13 -3491 4 -1427 1 -1997 -10 -2470 -18 -790 -18 -1351 -1
-1485 94 -702 351 -1159 922 -1639 79 -66 191 -163 250 -215 142 -127 614
-600 1016 -1018 276 -287 335 -354 367 -413 53 -102 50 -179 -11 -243 -35 -37
-64 -52 -130 -66 -39 -8 -1430 -11 -5192 -11 -4333 0 -5145 2 -5172 13 -47 20
-92 75 -118 144 -24 64 -22 103 7 159 10 19 546 565 1192 1214 646 649 1198
1211 1228 1248 30 37 69 99 88 137 71 144 65 -231 62 4141 -2 3238 -5 3956
-16 3990 -21 66 -64 111 -123 129 -74 22 -138 18 -361 -21z"/>
<path d="M19280 37836 c-25 -6 -56 -19 -69 -28 -37 -26 -203 -208 -392 -428
-1395 -1632 -2480 -3351 -3276 -5190 -1312 -3029 -1771 -6360 -1372 -9945 311
-2795 1222 -5410 2727 -7825 497 -798 1126 -1666 1634 -2256 316 -368 624
-720 648 -741 74 -67 175 -81 266 -39 62 29 100 76 114 142 7 34 9 4035 8
13099 l-3 13050 -22 47 c-26 57 -86 103 -154 117 -58 13 -52 13 -109 -3z"/>
<path d="M47344 37816 c-55 -28 -84 -62 -102 -116 -16 -47 -20 -26162 -4
-26201 43 -106 192 -168 297 -125 61 26 103 66 269 255 2929 3354 4541 7047
4890 11211 75 885 88 1973 36 2910 -167 3005 -940 5686 -2383 8270 -726 1299
-1612 2536 -2573 3591 -171 187 -219 222 -313 227 -55 3 -74 -1 -117 -22z"/>
<path d="M23067 21818 c-116 -16 -189 -98 -195 -218 -4 -60 -1 -75 24 -120 20
-37 275 -297 985 -1004 610 -608 972 -976 999 -1016 60 -88 117 -214 148 -328
l27 -97 1 -5787 c2 -5334 3 -5793 18 -5868 40 -197 150 -344 343 -459 81 -48
436 -202 798 -346 1239 -492 2543 -859 3860 -1086 295 -51 409 -56 471 -20 53
30 79 77 92 166 17 114 25 3865 13 5976 -12 2036 -8 1937 -67 2083 -14 37 -43
93 -64 125 -24 38 -448 468 -1228 1250 -902 903 -1196 1203 -1214 1239 -31 63
-29 124 6 196 31 64 75 99 146 116 32 7 1510 10 5195 8 l5150 -3 42 -22 c70
-38 123 -128 123 -210 0 -86 8 -78 -1238 -1323 -766 -765 -1198 -1205 -1223
-1243 -53 -82 -95 -187 -115 -292 -16 -84 -17 -342 -18 -3980 -1 -3700 0
-3893 17 -3954 36 -133 93 -167 260 -158 145 8 676 107 1177 218 1150 257
2338 636 3411 1089 239 101 344 155 433 222 132 99 232 253 273 418 17 72 18
276 18 5865 l0 5790 27 93 c34 115 83 222 142 311 32 48 320 341 1001 1022
647 645 966 970 986 1004 24 41 29 61 29 115 0 109 -61 193 -161 220 -41 11
-20615 19 -20692 8z"/>
</g>
</svg>
