<?xml version="1.0" standalone="no"?>
<!DOCTYPE svg PUBLIC "-//W3C//DTD SVG 20010904//EN"
 "http://www.w3.org/TR/2001/REC-SVG-20010904/DTD/svg10.dtd">
<svg version="1.0" xmlns="http://www.w3.org/2000/svg"
 width="1269.000000pt" height="900.000000pt" viewBox="0 0 1269.000000 900.000000"
 preserveAspectRatio="xMidYMid meet">

<g transform="translate(0.000000,900.000000) scale(0.100000,-0.100000)"
fill="#000000" stroke="none">
<path d="M5985 6989 c-368 -48 -715 -201 -1180 -522 -265 -182 -623 -447 -721
-532 -128 -112 -238 -177 -363 -215 -64 -20 -85 -22 -174 -16 -133 10 -298 31
-475 61 -198 35 -267 40 -337 25 -68 -14 -125 -61 -125 -102 0 -18 169 -831
205 -984 4 -20 6 -20 67 -7 74 16 133 12 308 -22 196 -38 378 -50 528 -36 349
32 614 138 834 333 63 56 225 187 344 278 160 123 420 295 564 373 30 17 74
40 97 53 24 13 85 41 137 63 405 173 802 160 1239 -39 253 -115 505 -281 920
-605 282 -219 350 -262 534 -336 211 -84 354 -113 558 -113 l160 0 124 42
c156 53 297 82 399 82 l80 0 36 193 c160 835 156 811 138 825 -34 26 -116 42
-220 42 -86 0 -146 -9 -331 -47 -194 -40 -244 -46 -351 -47 -185 -1 -266 28
-478 170 -152 103 -243 172 -427 323 -77 63 -190 152 -252 198 -408 297 -879
498 -1305 558 -119 16 -416 19 -533 4z m217 -138 c59 -18 159 -91 200 -146 82
-108 115 -265 83 -394 -57 -232 -254 -375 -495 -358 -192 13 -324 130 -365
324 -58 273 79 503 345 580 51 14 174 11 232 -6z m713 -80 c90 -22 201 -65
268 -104 155 -91 182 -267 57 -368 -40 -32 -132 -59 -202 -59 -26 0 -48 -2
-48 -5 0 -2 9 -28 21 -57 11 -29 45 -136 74 -237 30 -101 60 -188 67 -192 43
-28 95 4 175 108 160 207 363 494 363 514 0 28 15 24 99 -28 129 -79 228 -161
281 -233 64 -86 87 -139 102 -233 14 -94 -4 -180 -57 -267 -67 -110 -152 -165
-303 -197 -68 -14 -92 -15 -147 -6 -79 14 -127 38 -305 152 -74 48 -176 113
-225 144 -168 104 -158 88 -220 347 -30 124 -57 235 -60 248 -5 22 -4 22 104
22 109 0 111 0 146 31 48 42 72 122 52 171 -21 49 -62 85 -124 108 -59 22 -81
20 -106 -8 -28 -31 -238 -622 -235 -662 3 -33 2 -35 -27 -32 -47 4 -121 31
-150 54 l-26 20 21 23 c23 24 273 664 285 728 8 44 11 44 120 18z m-1599 -91
c-5 -30 0 -54 18 -97 13 -32 79 -188 146 -348 143 -339 152 -380 107 -478 -17
-38 -35 -61 -56 -71 -39 -21 -39 -20 -34 8 13 68 -16 182 -101 391 -155 384
-212 510 -232 514 -25 4 -45 21 -38 32 8 13 91 60 132 75 60 21 65 19 58 -26z
m-652 -614 c107 -63 131 -189 66 -341 l-19 -44 84 -30 c102 -37 172 -55 289
-75 49 -9 91 -18 94 -20 10 -10 -45 -66 -84 -86 l-40 -20 -75 20 c-190 51
-433 128 -437 139 -2 6 20 48 48 91 77 117 78 182 5 250 -38 36 -101 33 -182
-8 -64 -33 -93 -63 -93 -97 0 -17 283 -385 420 -547 44 -52 48 -68 23 -90 -21
-17 -109 -68 -118 -68 -3 0 -12 15 -20 34 -13 31 -111 161 -367 488 -50 64
-101 122 -114 129 -30 15 -30 24 -1 48 163 139 214 177 281 211 98 50 174 55
240 16z m3887 -294 c79 -51 84 38 -42 -753 l-31 -196 -94 45 -94 46 24 21 c27
23 47 71 76 184 29 113 22 123 -114 192 -44 21 -92 39 -107 39 -31 0 -172 -90
-194 -124 -7 -11 -17 -38 -20 -58 l-7 -38 -67 37 c-36 20 -70 39 -74 43 -5 4
56 56 135 116 79 59 190 146 248 191 266 211 281 224 287 254 7 36 18 36 74 1z
m-4589 -80 c-5 -34 15 -82 116 -292 44 -91 107 -223 141 -295 34 -72 73 -139
87 -151 l25 -21 -98 -40 c-92 -39 -132 -43 -105 -11 8 10 -20 80 -109 278 -66
146 -138 307 -161 357 -25 58 -48 95 -59 98 -34 11 -20 32 44 63 106 52 125
54 119 14z m5543 -219 c0 -120 2 -310 4 -423 l3 -205 -35 -3 c-31 -3 -39 2
-76 45 -22 26 -122 145 -221 263 -100 118 -199 236 -221 263 -22 26 -44 47
-50 47 -12 0 -12 -222 1 -391 14 -179 17 -194 45 -227 l24 -29 -56 -2 c-31 -1
-59 -2 -62 -3 -3 0 -19 0 -35 1 -24 1 -27 4 -22 24 9 35 -14 759 -25 786 -5
13 -7 26 -4 29 3 3 43 8 88 10 l84 4 46 -53 c26 -30 123 -148 215 -264 172
-214 202 -241 211 -185 2 14 -2 124 -9 245 -11 187 -15 225 -32 253 l-20 32
74 0 73 0 0 -217z m-5963 147 c20 -6 39 -18 42 -28 9 -32 137 -456 192 -637
30 -99 59 -188 64 -197 9 -17 2 -18 -93 -18 -57 0 -107 3 -110 7 -4 3 0 14 8
23 14 16 14 28 0 126 -19 125 -34 167 -67 185 -14 8 -64 13 -129 13 -125 1
-128 -1 -190 -104 -45 -76 -55 -117 -41 -160 15 -40 3 -45 -86 -33 l-69 8 106
216 c265 538 264 536 257 574 l-7 35 43 0 c24 0 60 -5 80 -10z"/>
<path d="M5957 6756 c-21 -8 -55 -25 -77 -40 -171 -113 -174 -408 -5 -581 64
-66 129 -90 221 -82 175 14 297 218 250 420 -30 128 -97 226 -188 273 -44 23
-152 28 -201 10z"/>
<path d="M7747 6178 c-22 -23 -65 -81 -95 -128 -30 -47 -104 -154 -164 -237
-59 -84 -108 -156 -108 -161 0 -14 101 -84 169 -116 129 -61 276 -33 382 73
72 73 102 145 103 251 1 66 -3 84 -32 142 -38 78 -163 218 -195 218 -11 0 -38
-19 -60 -42z"/>
<path d="M8360 5512 c-53 -36 -104 -96 -97 -115 2 -6 29 -22 61 -35 43 -19 62
-23 75 -15 21 13 37 62 46 141 6 56 5 62 -12 62 -10 0 -43 -17 -73 -38z"/>
<path d="M3453 5342 c-42 -62 -65 -118 -61 -151 3 -25 6 -26 66 -29 82 -4 96
7 89 68 -5 39 -49 160 -59 160 -2 0 -17 -21 -35 -48z"/>
<path d="M6079 5710 c-161 -25 -392 -102 -564 -187 -241 -120 -791 -490 -1117
-752 l-107 -86 272 -5 272 -5 16 45 c132 368 447 661 857 799 375 126 837 122
1169 -10 104 -41 141 -61 273 -147 265 -173 427 -345 569 -604 l43 -78 281 1
c204 0 278 3 266 11 -8 6 -101 68 -205 138 -262 178 -317 215 -552 379 -273
191 -351 240 -512 321 -156 78 -292 131 -417 162 -73 17 -123 22 -288 24 -110
1 -225 -1 -256 -6z"/>
<path d="M6085 5544 c-301 -46 -578 -187 -796 -404 -128 -127 -191 -211 -263
-350 -67 -129 -109 -242 -138 -374 -31 -137 -33 -463 -4 -596 41 -189 121
-375 230 -535 74 -110 254 -292 356 -361 596 -405 1369 -336 1868 168 403 407
528 1016 318 1551 -246 626 -905 1004 -1571 901z m508 -68 c106 -45 115 -175
15 -236 -18 -11 -40 -20 -48 -20 -10 0 -15 -10 -16 -27 -1 -106 -16 -243 -28
-268 -18 -40 -46 -155 -46 -194 0 -17 -10 -59 -21 -92 -19 -55 -20 -68 -10
-114 6 -28 21 -68 32 -89 16 -30 20 -58 21 -134 1 -54 -2 -116 -6 -140 -8 -41
-6 -44 34 -83 29 -29 40 -47 37 -60 -4 -16 7 -26 61 -53 37 -19 92 -55 123
-80 31 -25 59 -46 64 -46 17 0 135 -78 228 -149 53 -42 119 -92 145 -111 27
-19 47 -41 44 -48 -10 -31 83 -34 103 -3 3 6 18 11 33 11 l26 0 -24 -17 c-56
-38 -52 -53 11 -53 35 0 63 7 86 21 35 22 83 20 83 -4 0 -17 -84 -97 -145
-137 -27 -19 -65 -47 -84 -63 l-34 -29 -18 23 c-10 13 -19 29 -19 34 0 19
-104 117 -140 132 -19 9 -51 27 -70 42 -19 15 -47 32 -63 39 -15 6 -57 34 -93
62 -85 65 -147 96 -209 105 -28 4 -88 22 -135 41 -178 70 -252 93 -276 84 -12
-5 -57 -30 -98 -55 -41 -25 -110 -62 -153 -83 -43 -21 -98 -53 -123 -71 -25
-18 -76 -51 -115 -74 -38 -23 -97 -63 -130 -90 -33 -26 -65 -45 -72 -43 -6 3
-17 -2 -23 -10 -7 -8 -18 -14 -25 -14 -7 0 -43 -32 -81 -71 -57 -58 -73 -69
-94 -66 -14 3 -41 -1 -60 -9 -43 -18 -69 -13 -103 22 -51 51 -34 79 61 105 84
22 123 54 110 89 -5 14 -5 27 1 33 7 7 14 0 21 -19 10 -26 12 -27 21 -11 7 12
17 16 30 12 12 -4 19 -2 19 7 0 16 115 133 170 173 19 15 67 44 105 66 128 74
140 83 235 182 52 53 98 97 104 97 23 0 45 33 40 59 -7 35 12 82 35 88 11 3
22 12 26 20 7 19 -4 81 -16 89 -5 3 -9 13 -9 22 0 9 -12 29 -25 45 l-24 28
-23 -23 c-13 -12 -34 -42 -48 -67 -14 -25 -44 -59 -66 -76 -48 -35 -80 -84
-88 -137 -5 -31 -2 -39 14 -48 11 -6 18 -15 15 -21 -9 -13 -49 -11 -63 3 -10
10 -17 7 -36 -16 -23 -29 -53 -29 -42 0 4 11 2 12 -14 4 -29 -16 -63 -13 -56
5 4 11 -1 15 -18 15 -33 0 -57 10 -50 21 3 5 16 9 30 9 67 0 124 46 173 140
16 30 49 85 73 122 70 109 95 150 118 196 13 24 34 51 47 60 14 9 37 27 50 40
l25 23 -21 23 c-37 39 -45 80 -25 122 19 40 66 74 103 74 31 0 131 -66 131
-87 0 -14 4 -12 24 6 24 22 41 69 56 150 12 63 38 160 55 196 29 66 28 106 -5
189 -43 106 -31 161 43 206 38 23 66 25 110 6z"/>
<path d="M2898 4643 c-21 -26 -38 -70 -38 -99 0 -81 183 -140 210 -68 15 38
-7 123 -40 156 -23 22 -38 28 -73 28 -30 0 -49 -6 -59 -17z"/>
<path d="M9625 4636 c-38 -38 -56 -126 -35 -167 21 -39 142 -18 184 32 43 51
32 115 -24 144 -44 23 -97 19 -125 -9z"/>
<path d="M324 4623 c29 -105 40 -135 65 -178 102 -176 287 -287 568 -341 66
-12 167 -18 403 -21 l314 -5 -66 70 c-36 39 -78 90 -92 115 -23 39 -66 178
-66 214 0 11 119 13 683 13 l682 0 0 52 c0 29 4 63 8 76 l8 22 -1256 0 c-1192
0 -1256 -1 -1251 -17z"/>
<path d="M3105 4613 c4 -10 12 -44 18 -76 l11 -57 819 2 819 3 19 60 c10 33
19 66 19 73 0 9 -91 12 -420 12 -357 0 -434 -3 -512 -17 -127 -24 -461 -24
-600 0 -54 9 -116 17 -139 17 -35 0 -40 -3 -34 -17z"/>
<path d="M7795 4613 c4 -10 13 -39 20 -65 7 -25 16 -51 19 -57 5 -8 253 -11
852 -11 l844 0 0 40 c0 22 7 56 14 75 l15 35 -172 0 c-114 0 -196 -5 -242 -15
-91 -19 -294 -19 -410 0 -69 11 -188 15 -519 15 -404 0 -428 -1 -421 -17z"/>
<path d="M9845 4573 c0 -32 -4 -66 -9 -76 -8 -16 26 -17 683 -15 380 2 691 0
691 -3 0 -19 -63 -187 -86 -230 -16 -28 -55 -80 -88 -116 l-60 -65 265 5 c335
7 432 27 676 142 245 116 382 233 435 373 l16 42 -1261 0 -1262 0 0 -57z"/>
<path d="M7861 4375 l2 -55 1058 0 c583 0 1059 -4 1059 -8 0 -5 -7 -33 -16
-63 -24 -80 -75 -158 -154 -233 l-70 -66 329 0 c438 0 516 11 686 98 65 34
109 66 161 117 69 69 146 183 159 238 l7 27 -1611 0 -1611 0 1 -55z"/>
<path d="M1560 4407 c0 -20 50 -109 88 -156 80 -99 281 -222 442 -271 71 -22
94 -24 434 -27 l360 -5 -56 61 c-66 71 -108 142 -137 230 -12 35 -21 66 -21
68 0 1 465 3 1033 3 l1034 0 10 55 10 55 -1599 0 c-1277 0 -1598 -3 -1598 -13z"/>
<path d="M2786 4228 c38 -124 184 -253 382 -338 168 -72 140 -70 906 -70 l689
0 -6 28 c-14 68 -29 292 -23 345 l6 57 -981 0 -980 0 7 -22z"/>
<path d="M7873 4192 c6 -55 -4 -232 -19 -329 l-6 -44 708 3 709 3 85 29 c169
56 316 142 416 241 51 50 104 127 104 150 0 3 -451 5 -1001 5 l-1002 0 6 -58z"/>
<path d="M1350 3981 c0 -21 87 -135 138 -182 76 -68 219 -152 317 -186 l80
-28 359 -3 358 -3 -60 59 c-57 58 -122 165 -122 202 0 15 -16 18 -137 23 -159
6 -247 26 -385 87 l-91 40 -228 0 c-126 0 -229 -4 -229 -9z"/>
<path d="M10786 3953 c-106 -54 -238 -84 -394 -90 -111 -5 -135 -9 -139 -22
-21 -70 -62 -148 -104 -200 l-50 -62 353 3 353 3 88 32 c177 63 338 189 410
321 l28 52 -238 -1 -238 -2 -69 -34z"/>
<path d="M2520 3832 c0 -30 53 -104 113 -158 68 -60 180 -126 291 -171 155
-62 167 -63 545 -63 l344 0 -39 28 c-85 62 -147 146 -162 219 l-8 38 -144 6
c-157 6 -234 25 -360 89 l-59 30 -261 0 c-244 0 -260 -1 -260 -18z"/>
<path d="M9537 3829 c-20 -11 -86 -36 -145 -56 -87 -29 -126 -37 -210 -41 -84
-4 -105 -8 -109 -21 -32 -97 -93 -182 -184 -255 l-34 -27 385 4 c359 3 390 5
465 25 195 54 354 172 423 314 17 37 32 70 32 73 0 3 -132 5 -292 5 -273 -1
-296 -2 -331 -21z"/>
<path d="M3708 3681 c43 -115 239 -246 507 -338 l110 -38 319 -3 c175 -2 316
1 315 5 -2 5 -28 56 -57 113 -29 58 -66 143 -82 190 l-29 85 -545 3 c-535 2
-545 2 -538 -17z"/>
<path d="M7817 3693 c-2 -5 -16 -44 -31 -88 -14 -44 -51 -129 -81 -189 -30
-59 -55 -110 -55 -112 0 -2 163 -4 362 -4 411 0 430 2 587 76 148 69 287 176
343 263 15 25 28 49 28 53 0 10 -1147 11 -1153 1z"/>
<path d="M2200 3475 c0 -3 11 -27 24 -53 63 -123 259 -258 462 -317 84 -24 95
-25 396 -25 l311 0 -46 49 c-51 54 -81 107 -97 173 l-12 45 -76 6 c-93 7 -220
43 -326 91 l-78 36 -279 0 c-154 0 -279 -2 -279 -5z"/>
<path d="M9910 3445 c-102 -53 -228 -86 -359 -93 l-114 -7 -17 -52 c-20 -61
-55 -118 -113 -180 l-41 -45 329 4 c296 4 338 7 407 26 195 53 372 180 447
321 l32 61 -253 -1 -253 0 -65 -34z"/>
<path d="M3340 3320 c0 -27 46 -102 91 -149 70 -73 181 -143 302 -190 170 -66
213 -71 583 -71 l326 0 -69 64 c-71 66 -113 130 -132 204 -12 41 -13 42 -55
42 -57 0 -177 31 -285 75 l-88 35 -337 0 c-220 0 -336 -3 -336 -10z"/>
<path d="M8655 3308 c-103 -55 -197 -80 -315 -87 l-115 -6 -7 -43 c-11 -64
-54 -135 -124 -202 l-62 -60 329 0 c370 0 420 6 573 67 110 43 179 84 255 148
63 54 126 136 136 178 l7 27 -318 0 c-305 -1 -321 -2 -359 -22z"/>
<path d="M4540 3200 c0 -25 44 -93 92 -143 94 -95 213 -166 367 -217 85 -29
96 -30 266 -30 l178 0 -69 51 c-102 75 -217 184 -286 272 l-61 77 -243 0
c-162 0 -244 -3 -244 -10z"/>
<path d="M7530 3144 c-83 -102 -191 -207 -282 -274 l-82 -60 201 0 c221 0 271
7 383 53 180 74 314 188 365 310 l15 37 -273 0 -274 0 -53 -66z"/>
<path d="M3081 2924 c68 -99 179 -188 314 -250 128 -59 165 -64 519 -64 l318
0 -32 37 c-34 38 -80 127 -80 154 0 13 -17 17 -92 22 -146 10 -293 52 -430
123 -47 24 -52 24 -298 24 l-251 0 32 -46z"/>
<path d="M9034 2924 c-121 -58 -254 -94 -380 -101 l-102 -6 -6 -37 c-7 -42
-48 -124 -79 -158 l-22 -24 320 4 c315 4 321 5 410 32 181 55 343 164 394 264
39 76 49 72 -211 71 l-233 -1 -91 -44z"/>
<path d="M4220 2791 c0 -22 57 -101 98 -137 43 -37 210 -120 302 -149 96 -31
121 -33 576 -38 l281 -4 -71 71 c-45 44 -83 93 -100 129 l-28 57 -87 0 c-95 0
-214 25 -312 65 -62 25 -65 25 -361 25 -287 0 -298 -1 -298 -19z"/>
<path d="M7785 2780 c-99 -40 -208 -60 -325 -60 l-101 0 -19 -45 c-25 -58 -72
-129 -118 -177 l-36 -38 328 0 c246 0 355 4 435 16 178 26 328 86 416 165 36
34 99 145 89 160 -3 5 -139 9 -302 8 l-297 -1 -70 -28z"/>
<path d="M5404 2673 c56 -105 289 -255 463 -297 42 -11 167 -16 463 -21 442
-7 449 -6 590 52 75 31 180 97 229 144 30 29 101 130 101 144 0 3 -62 5 -138
5 -137 0 -140 -1 -243 -39 -207 -78 -347 -104 -569 -104 -202 -1 -400 36 -578
109 -82 32 -92 34 -209 34 l-124 0 15 -27z"/>
<path d="M3830 2481 c0 -5 21 -32 47 -61 78 -86 201 -161 363 -218 145 -51
242 -62 538 -62 l264 0 -60 66 c-35 38 -70 88 -83 120 -22 53 -23 54 -65 54
-86 0 -356 70 -388 101 -13 12 -616 12 -616 0z"/>
<path d="M8210 2455 c-100 -39 -214 -64 -335 -73 l-86 -7 -21 -60 c-11 -33
-38 -84 -60 -113 l-39 -53 323 6 c178 3 347 8 377 11 143 13 368 149 422 256
36 71 48 68 -238 67 l-258 -1 -85 -33z"/>
<path d="M5007 2348 c54 -99 174 -197 327 -268 143 -66 171 -70 550 -70 l338
0 -27 31 c-30 37 -76 125 -106 204 l-20 55 -74 0 c-98 0 -161 14 -270 61 l-90
39 -328 0 -328 0 28 -52z"/>
<path d="M6970 2365 c-86 -45 -202 -75 -309 -82 l-88 -6 -12 -48 c-12 -47 -73
-152 -112 -195 l-19 -21 339 -6 c281 -6 353 -4 426 8 236 41 438 190 486 357
l8 28 -327 -1 -327 -1 -65 -33z"/>
<path d="M6228 2284 c-10 -3 -18 -8 -18 -10 0 -17 65 -135 90 -164 l30 -35 40
45 c48 54 92 141 79 155 -10 10 -192 17 -221 9z"/>
</g>
</svg>
