<?xml version="1.0" standalone="no"?>
<!DOCTYPE svg PUBLIC "-//W3C//DTD SVG 20010904//EN"
 "http://www.w3.org/TR/2001/REC-SVG-20010904/DTD/svg10.dtd">
<svg version="1.0" xmlns="http://www.w3.org/2000/svg"
 width="1563.000000pt" height="1563.000000pt" viewBox="0 0 1563.000000 1563.000000"
 preserveAspectRatio="xMidYMid meet">

<g transform="translate(0.000000,1563.000000) scale(0.100000,-0.100000)"
fill="#000000" stroke="none">
<path d="M5944 14307 c-2 -7 -3 -105 -2 -217 l3 -205 35 -6 c117 -22 164 -34
243 -61 149 -49 270 -125 341 -211 l36 -44 0 -1997 0 -1997 48 33 c27 18 116
82 198 141 144 105 375 271 489 351 l55 39 0 2094 0 2093 -720 0 c-575 0 -722
-3 -726 -13z"/>
<path d="M8260 12545 c0 -976 4 -1775 8 -1775 5 0 47 28 94 63 48 34 96 69
108 77 12 8 75 53 140 100 65 47 190 137 278 200 l161 115 0 1111 1 1111 28
41 c86 128 287 232 536 279 l96 17 0 218 0 218 -725 0 -725 0 0 -1775z"/>
<path d="M4312 12693 l3 -216 120 -27 c139 -32 183 -45 222 -65 15 -8 31 -15
35 -15 13 0 111 -62 156 -98 24 -19 61 -58 82 -86 l40 -53 0 -4351 0 -4351
-62 -66 c-122 -131 -274 -206 -493 -245 -38 -6 -77 -15 -85 -20 -12 -6 -15
-43 -18 -219 l-2 -211 730 0 730 0 0 2138 c0 2049 1 2138 18 2153 10 9 49 37
88 64 38 27 105 74 149 106 44 32 96 69 115 83 32 23 256 184 305 220 47 34
277 200 425 306 88 63 223 160 299 215 77 55 149 107 161 115 12 8 84 60 161
115 297 214 286 208 311 194 13 -7 67 -44 120 -83 54 -39 161 -116 238 -171
77 -55 212 -152 300 -215 88 -63 232 -167 320 -230 89 -63 226 -162 306 -220
154 -112 386 -279 577 -415 64 -46 128 -92 141 -102 13 -10 33 -25 45 -33 l21
-14 0 -2113 0 -2113 725 0 725 0 0 215 c0 164 -3 216 -12 219 -7 2 -44 9 -83
16 -239 43 -410 133 -522 274 l-33 41 0 1928 c0 1854 -1 1928 -18 1945 -10 9
-61 47 -113 85 -52 37 -167 120 -257 185 -89 64 -225 162 -302 217 -132 94
-282 202 -591 425 -73 52 -155 111 -183 131 -28 19 -150 107 -271 194 -237
171 -261 188 -375 269 -41 30 -76 61 -78 69 -2 10 20 31 57 56 33 23 100 70
148 106 99 72 120 87 286 206 65 46 180 129 256 184 77 55 149 107 161 115 12
8 84 60 161 115 250 180 727 522 923 663 82 59 160 117 173 129 l23 22 0 836
0 836 78 78 c42 43 91 85 107 94 130 68 213 98 345 128 30 6 69 15 85 19 l30
6 3 217 2 217 -725 0 -725 0 0 -1019 0 -1019 -75 -54 c-42 -29 -147 -105 -235
-168 -88 -63 -225 -162 -306 -220 -80 -58 -192 -138 -248 -179 -112 -82 -145
-105 -376 -271 -88 -63 -223 -160 -300 -215 -77 -55 -212 -152 -300 -215 -88
-63 -209 -150 -268 -192 -59 -42 -123 -88 -142 -102 -138 -99 -287 -206 -295
-213 -5 -5 -39 -29 -75 -54 -36 -25 -132 -94 -215 -154 -82 -60 -185 -133
-228 -164 -43 -31 -140 -101 -216 -156 -77 -55 -149 -107 -161 -115 -23 -16
-217 -155 -431 -310 -168 -122 -210 -150 -221 -150 -4 0 -8 1118 -8 2485 l0
2485 -730 0 -730 0 2 -217z"/>
<path d="M7334 7192 c-28 -20 -110 -80 -183 -132 -208 -150 -404 -291 -480
-345 l-71 -49 0 -2300 0 -2299 -36 -44 c-99 -121 -293 -216 -528 -260 l-96
-17 0 -218 0 -218 725 0 725 0 0 2960 c0 1628 -1 2960 -2 2959 -2 0 -26 -17
-54 -37z"/>
<path d="M8260 4240 l0 -2930 725 0 725 0 0 218 0 218 -96 17 c-157 29 -303
84 -399 149 -46 32 -135 120 -151 150 -12 23 -14 352 -14 2291 l0 2263 -37 28
c-40 28 -148 106 -413 296 -88 63 -197 141 -241 173 -43 31 -84 57 -89 57 -7
0 -10 -1011 -10 -2930z"/>
</g>
</svg>
