<?xml version="1.0" standalone="no"?>
<!DOCTYPE svg PUBLIC "-//W3C//DTD SVG 20010904//EN"
 "http://www.w3.org/TR/2001/REC-SVG-20010904/DTD/svg10.dtd">
<svg version="1.0" xmlns="http://www.w3.org/2000/svg"
 width="2934.000000pt" height="1689.000000pt" viewBox="0 0 2934.000000 1689.000000"
 preserveAspectRatio="xMidYMid meet">

<g transform="translate(0.000000,1689.000000) scale(0.100000,-0.100000)"
fill="#000000" stroke="none">
<path d="M7620 15293 c-12 -32 -31 -77 -41 -100 -11 -23 -19 -48 -19 -55 0 -7
-9 -28 -20 -46 -11 -18 -20 -39 -20 -47 0 -8 -9 -34 -19 -57 -10 -24 -28 -68
-39 -98 -35 -98 -114 -304 -133 -347 -11 -23 -19 -47 -19 -53 0 -5 -9 -29 -19
-53 -10 -23 -24 -55 -29 -72 -6 -16 -19 -52 -30 -80 -10 -27 -36 -95 -57 -150
-20 -55 -46 -119 -56 -142 -11 -23 -19 -47 -19 -52 0 -6 -9 -30 -19 -53 -11
-24 -34 -81 -51 -128 -17 -47 -35 -94 -39 -105 -11 -27 -80 -204 -168 -435
-13 -36 -35 -92 -48 -125 -13 -33 -54 -139 -91 -235 -37 -96 -75 -197 -86
-225 -11 -27 -28 -72 -38 -100 -10 -27 -38 -102 -63 -165 -35 -91 -198 -516
-357 -930 -112 -292 -490 -1276 -517 -1345 -20 -49 -95 -245 -168 -435 -72
-190 -248 -646 -389 -1013 -142 -368 -255 -672 -251 -675 4 -4 398 -8 876 -10
l869 -3 0 20 c0 25 20 28 21 4 0 -14 2 -15 6 -3 3 8 9 17 13 20 7 5 31 67 81
205 10 28 32 86 49 130 17 44 35 92 40 106 4 14 14 37 21 50 7 13 19 42 25 64
7 22 24 72 38 110 15 39 31 82 35 96 5 15 15 42 23 60 14 32 23 54 81 209 14
36 43 115 67 175 23 61 51 135 62 165 11 30 28 75 38 100 22 54 160 420 206
545 37 102 103 279 141 375 24 61 50 129 93 245 10 28 28 75 40 105 12 30 35
92 52 138 17 46 32 81 35 78 3 -2 0 -76 -6 -163 -6 -87 -24 -358 -41 -603 -17
-245 -57 -834 -89 -1310 -32 -476 -57 -868 -54 -872 2 -5 26 -8 54 -8 36 0 49
-4 49 -15 0 -8 13 -16 33 -20 17 -3 419 -4 892 -2 707 2 860 4 857 15 -1 8 2
11 8 7 6 -3 8 -11 5 -16 -4 -5 1 -9 9 -9 22 0 25 10 28 85 1 37 4 62 6 56 2
-6 10 -11 18 -11 10 0 14 13 14 44 0 27 5 46 13 49 7 2 6 3 -3 3 -8 -1 -16
-11 -18 -24 -2 -12 -8 -22 -13 -22 -5 0 -3 15 4 33 10 23 21 33 40 35 25 3 27
7 27 48 0 28 4 43 10 39 14 -8 30 38 30 86 0 32 4 39 19 39 16 0 19 7 18 38
-1 24 -6 36 -15 34 -10 -2 -10 2 -2 18 6 11 15 18 21 15 5 -4 9 -1 9 4 0 6 7
11 15 11 11 0 15 11 15 41 0 32 4 42 19 46 14 4 19 13 19 34 l-1 30 -20 -28
c-19 -28 -19 -28 -13 -3 3 14 6 31 6 39 0 8 6 11 15 7 11 -4 15 2 15 24 0 24
4 30 23 30 17 0 19 2 7 9 -8 6 -18 7 -22 5 -4 -3 -5 2 -2 10 3 8 11 13 18 10
7 -3 12 4 12 15 0 11 -4 17 -8 15 -10 -6 -9 4 1 31 5 12 17 20 31 20 13 0 25
6 28 13 2 6 0 12 -5 12 -10 0 -10 41 1 58 4 7 16 12 26 12 16 0 18 7 17 55 -2
51 -1 55 20 55 19 0 22 5 22 43 1 94 1 97 22 86 18 -9 19 -6 18 51 -1 33 1 64
5 67 3 3 6 -1 6 -10 0 -9 7 -17 16 -17 14 0 14 3 4 15 -10 12 -10 15 0 15 8 0
11 13 8 40 -2 22 0 40 5 40 4 0 6 4 2 9 -3 6 4 8 16 6 20 -4 21 -1 15 35 -4
26 -2 40 5 40 6 0 8 8 4 20 -5 15 -2 20 13 20 23 0 37 47 20 68 -8 9 -3 14 21
18 22 5 31 12 29 23 -2 9 -11 15 -21 15 -21 -2 -21 6 -3 41 12 24 15 25 20 8
3 -10 4 -6 2 10 -3 23 1 27 20 27 13 0 24 5 24 10 0 6 -5 10 -11 10 -8 0 -8 5
1 15 8 9 10 28 6 52 -5 28 -4 34 3 23 7 -10 11 -11 11 -3 0 7 6 12 13 10 8 -1
12 12 10 46 -1 39 2 47 17 47 10 0 21 7 24 16 9 24 7 34 -5 31 -6 -1 -14 4
-16 11 -3 7 1 11 8 10 7 -2 15 10 19 27 3 17 11 30 20 30 11 0 16 16 20 61 3
34 11 68 18 76 7 9 9 24 6 34 -6 17 -5 17 10 -1 17 -20 17 -20 11 2 -5 20 8
37 29 38 5 0 11 6 14 14 3 9 0 11 -9 5 -11 -6 -12 -5 -2 7 7 9 12 32 11 53 -1
37 16 61 35 49 5 -3 8 16 7 43 -3 68 -3 71 21 77 15 4 20 13 19 34 -3 43 -1
55 9 49 16 -11 30 19 33 74 3 47 6 55 22 52 17 -3 18 2 14 40 -6 54 3 83 28
83 12 0 19 7 20 20 3 72 4 74 24 70 11 -2 20 0 20 6 0 5 -10 9 -22 9 -18 0
-20 2 -8 9 8 6 18 7 23 4 5 -3 8 3 7 13 -1 11 -2 34 -1 52 1 28 4 32 20 27 18
-6 20 -2 17 50 -2 34 2 62 10 73 13 16 13 16 14 -2 0 -28 6 -16 14 27 5 26 4
37 -3 32 -7 -3 -8 0 -5 9 5 14 24 21 47 17 10 -1 9 41 -3 59 -5 9 -5 17 0 20
6 3 11 18 12 32 2 18 7 24 20 20 15 -3 17 3 15 52 -1 40 2 59 13 66 8 5 18 6
22 4 7 -5 10 6 12 60 1 11 7 21 14 24 6 2 12 11 13 20 0 14 2 13 9 -3 7 -15 9
-6 9 35 -1 80 -1 81 18 78 13 -2 18 5 20 30 2 20 -1 31 -7 27 -12 -7 -14 8 -2
19 4 4 12 22 19 39 6 18 12 24 12 15 1 -10 6 -18 12 -18 5 0 9 8 8 18 -1 9 -1
32 0 51 1 28 4 33 21 28 17 -4 20 0 20 24 0 16 -5 29 -12 29 -9 0 -10 3 -2 8
6 4 14 24 18 46 7 35 8 37 21 20 13 -17 14 -15 13 26 -1 56 9 90 28 90 13 0
19 23 15 62 -1 10 7 18 21 20 13 2 23 10 23 18 0 8 -6 14 -14 12 -10 -2 -12 4
-7 20 3 13 6 27 6 31 0 5 4 6 9 3 5 -3 9 0 8 7 -1 37 4 45 24 40 16 -5 20 -2
17 13 -2 11 -7 22 -13 26 -6 5 -6 8 1 8 6 0 11 13 12 30 1 38 9 51 28 43 13
-5 15 2 14 33 -3 59 -2 63 20 57 16 -4 20 0 20 21 0 16 -4 25 -10 21 -13 -8
-13 8 -1 21 5 5 11 20 13 34 2 14 10 25 18 25 11 0 15 11 15 38 0 20 3 37 8
37 4 0 7 11 7 25 0 15 5 24 13 22 7 -1 11 7 9 22 -3 16 0 21 8 16 9 -5 10 -1
6 13 -5 14 0 28 13 41 18 18 20 18 24 3 2 -9 4 9 5 41 0 59 4 72 25 72 7 0 13
16 14 35 1 19 2 44 2 55 1 11 6 27 11 35 9 13 11 13 20 0 8 -12 10 -7 9 20 -2
55 0 60 21 60 17 0 20 7 20 48 0 65 9 94 27 88 10 -4 14 1 12 22 -4 47 0 64
13 56 8 -5 9 -2 5 10 -4 10 -4 23 0 29 4 7 10 2 14 -13 4 -17 7 -8 7 28 0 29
5 58 10 65 5 7 12 21 15 32 4 18 5 18 6 -2 2 -47 18 -21 20 32 1 52 19 122 20
83 1 -10 5 -18 11 -18 5 0 8 17 6 38 -4 49 11 92 30 85 17 -6 18 8 2 26 -7 8
-8 11 -2 8 7 -4 13 7 17 32 2 21 12 53 20 72 8 19 21 51 28 72 11 31 15 34 20
20 5 -12 8 -3 8 25 1 48 17 86 32 77 5 -4 9 11 9 35 0 33 4 42 23 49 20 8 24
16 22 55 0 25 5 56 12 68 7 13 12 17 13 10 0 -7 5 -10 11 -7 6 4 9 21 8 39 -3
42 10 86 26 86 8 0 13 15 13 41 1 23 6 47 11 52 8 8 11 7 11 -4 0 -12 2 -12
10 1 5 8 10 36 10 61 0 44 18 77 33 62 4 -3 7 11 8 33 1 54 12 89 28 89 8 0
15 15 17 40 2 21 12 62 23 90 10 27 22 58 25 67 3 12 11 15 22 11 15 -5 16 -1
12 28 -3 19 1 48 8 64 9 20 13 24 14 12 0 -10 4 -16 8 -13 4 2 9 32 10 66 1
34 7 70 12 80 6 10 10 21 10 24 0 4 -397 5 -882 4 l-883 -3 -580 -1546 c-319
-850 -588 -1554 -598 -1563 -9 -10 -15 -22 -12 -26 6 -9 -20 -80 -28 -80 -8 0
13 81 28 111 8 15 15 36 15 46 -1 17 -1 17 -14 0 -13 -16 -14 -16 -20 5 -9 34
-8 37 14 31 18 -5 20 0 20 35 0 23 -7 47 -15 56 -19 19 -19 46 -1 46 12 0 14
26 14 140 0 182 10 268 30 279 14 8 17 36 17 200 0 184 -1 191 -20 192 -18 0
-18 1 3 9 21 9 22 14 18 82 -6 99 2 138 25 138 15 0 19 8 19 39 0 22 -6 42
-12 45 -10 5 -10 7 0 12 18 9 16 108 -4 125 -14 11 -14 13 0 21 14 8 16 37 16
197 0 182 1 189 20 194 21 5 21 11 19 323 -2 316 -2 318 19 332 21 14 22 20
22 210 0 174 -2 196 -17 208 -17 13 -17 15 0 28 9 7 17 21 17 30 0 15 -9 17
-60 14 l-60 -3 0 38 0 37 -833 0 -833 0 -24 -57z m1727 -425 c-3 -8 -6 -5 -6
6 -1 11 2 17 5 13 3 -3 4 -12 1 -19z m-20 -30 c-3 -8 -6 -5 -6 6 -1 11 2 17 5
13 3 -3 4 -12 1 -19z m-20 -130 c-3 -8 -6 -5 -6 6 -1 11 2 17 5 13 3 -3 4 -12
1 -19z m63 -18 c0 -11 -2 -20 -4 -20 -2 0 -6 9 -9 20 -3 11 -1 20 4 20 5 0 9
-9 9 -20z m2507 -242 c-3 -8 -6 -5 -6 6 -1 11 2 17 5 13 3 -3 4 -12 1 -19z
m-2560 -50 c-2 -13 -4 -3 -4 22 0 25 2 35 4 23 2 -13 2 -33 0 -45z m33 30 c0
-36 -4 -35 -14 5 -4 16 -2 27 4 27 5 0 10 -14 10 -32z m-10 -183 c0 -14 -4
-25 -9 -25 -4 0 -6 11 -3 25 2 14 6 25 8 25 2 0 4 -11 4 -25z m37 -97 c-3 -8
-6 -5 -6 6 -1 11 2 17 5 13 3 -3 4 -12 1 -19z m-50 -80 c-3 -8 -6 -5 -6 6 -1
11 2 17 5 13 3 -3 4 -12 1 -19z m-60 -400 c-3 -8 -6 -5 -6 6 -1 11 2 17 5 13
3 -3 4 -12 1 -19z m-20 -640 c-3 -7 -5 -2 -5 12 0 14 2 19 5 13 2 -7 2 -19 0
-25z m1499 -1585 c-10 -10 -19 5 -10 18 6 11 8 11 12 0 2 -7 1 -15 -2 -18z
m-879 -2315 c-3 -8 -6 -5 -6 6 -1 11 2 17 5 13 3 -3 4 -12 1 -19z m-317 -825
c-11 -17 -11 -17 -6 0 3 10 6 24 7 30 0 9 2 9 5 0 3 -7 0 -20 -6 -30z m-1803
-319 c-3 -3 -12 -4 -19 -1 -8 3 -5 6 6 6 11 1 17 -2 13 -5z"/>
<path d="M12389 15323 c-21 -54 -322 -863 -441 -1183 -66 -179 -198 -534 -293
-790 -95 -256 -274 -737 -398 -1070 -124 -333 -261 -702 -305 -820 -44 -118
-212 -568 -372 -1000 -524 -1411 -871 -2342 -891 -2392 -25 -64 -24 -68 11
-68 19 0 30 -5 30 -14 0 -8 7 -17 16 -20 9 -3 382 -6 830 -6 647 0 814 3 812
13 -5 27 13 69 27 63 11 -4 15 3 15 25 0 26 3 30 19 26 16 -4 19 1 19 36 1 38
16 62 34 51 4 -3 8 -1 8 5 0 5 -6 12 -12 14 -10 4 -10 8 0 15 18 12 10 48 -8
44 -10 -2 -9 3 4 17 11 12 27 21 38 21 12 0 19 8 19 23 1 12 3 31 3 42 1 11
-2 28 -6 37 -6 12 -2 19 15 24 12 5 25 7 28 6 3 0 5 22 4 51 0 29 4 58 9 66 8
11 8 13 -1 8 -7 -5 -9 0 -6 13 9 33 20 32 27 -2 4 -21 2 -34 -6 -40 -9 -5 -8
-8 5 -8 19 0 20 13 8 78 -5 23 -5 45 0 48 5 3 9 1 9 -3 0 -5 8 -9 18 -9 15 0
19 8 19 41 1 93 2 98 23 92 18 -4 20 0 20 35 0 31 4 41 20 45 17 5 20 14 20
64 0 51 3 59 19 59 22 0 30 30 25 98 -2 26 -1 43 3 37 5 -5 16 -11 26 -13 14
-2 17 5 17 53 0 32 4 55 11 55 5 0 7 -4 4 -10 -3 -5 1 -10 10 -10 9 0 15 6 14
13 -1 6 -1 34 0 60 1 40 5 50 22 54 16 4 20 13 18 37 -4 67 0 86 20 86 15 0
19 7 19 28 -1 15 2 38 5 52 4 14 4 19 1 13 -9 -21 -23 -15 -17 7 3 11 10 20
17 19 30 -4 36 3 36 41 0 33 4 42 23 50 12 5 19 9 15 9 -4 1 -3 12 2 26 6 15
6 26 0 30 -6 4 -10 11 -10 16 0 6 5 7 11 3 8 -4 9 4 5 27 -3 19 -3 28 0 22 9
-20 44 -16 42 5 -4 53 2 72 25 72 20 1 21 2 5 14 -22 16 -23 27 -4 20 12 -5
14 6 12 58 -1 35 -1 55 1 46 3 -10 14 -18 25 -18 19 0 20 5 16 65 -2 35 -1 60
3 54 4 -7 9 -4 13 6 3 9 11 13 18 9 8 -5 9 0 5 16 -8 31 10 73 28 66 8 -3 15
-2 15 3 0 5 -9 11 -19 14 -14 3 -21 -2 -25 -16 -3 -12 -8 -18 -11 -15 -4 3 -1
16 5 28 8 15 18 20 32 17 20 -6 20 -3 14 51 -3 32 -2 51 2 44 13 -20 42 -3 42
25 0 17 -4 22 -12 17 -7 -4 -5 1 4 12 17 19 18 22 18 49 0 8 9 15 19 15 17 0
20 7 19 43 0 23 -5 45 -10 48 -7 4 -6 9 1 13 6 4 11 2 11 -3 0 -6 9 -11 20
-11 18 0 20 6 19 63 l-2 62 -13 -35 c-7 -19 -12 -28 -12 -20 0 22 26 88 27 69
1 -20 41 -33 41 -14 0 7 -6 16 -12 18 -10 4 -10 6 0 6 19 1 14 39 -5 44 -17 4
-17 5 0 6 9 0 17 8 17 17 0 9 9 18 20 21 11 3 20 13 20 22 0 14 -2 14 -10 1
-6 -9 -10 -10 -10 -3 0 6 4 14 9 17 5 4 12 24 16 46 4 22 11 43 17 46 6 4 8
-2 3 -17 -5 -19 -4 -21 4 -9 6 8 11 29 11 45 0 46 11 77 25 71 16 -6 22 21 20
92 -1 43 1 51 11 38 20 -29 35 -19 32 22 -2 24 -8 36 -16 34 -8 -1 -11 2 -7 8
3 6 11 8 16 5 5 -4 9 -3 10 2 0 4 2 27 4 51 3 45 24 71 57 72 14 0 17 10 17
55 -1 34 -5 53 -11 49 -6 -4 -5 3 1 15 7 11 14 21 17 21 3 0 2 -6 -2 -12 -6
-10 -5 -10 8 -1 8 7 18 9 22 5 4 -4 6 11 5 32 -3 25 1 41 9 44 6 2 12 12 12
23 0 10 5 19 10 19 6 0 10 18 10 41 0 32 4 42 20 46 11 3 20 13 21 22 2 27 7
86 8 94 1 4 10 7 21 7 15 0 20 7 20 30 0 17 -7 34 -17 40 -17 11 -17 11 -1 6
13 -4 20 2 24 19 3 14 13 25 21 25 12 0 14 12 11 58 -2 40 1 59 9 59 6 0 9 -7
5 -15 -3 -10 0 -13 9 -10 9 3 14 21 15 51 0 31 -3 44 -10 40 -6 -4 -5 1 3 10
7 9 21 17 30 17 13 0 17 9 18 35 1 38 23 95 37 95 4 0 6 6 3 14 -10 25 8 71
26 68 13 -2 16 4 15 23 -2 19 -7 25 -19 22 -12 -3 -16 0 -12 9 2 7 12 10 20 7
11 -4 14 -2 9 5 -4 7 -3 12 2 12 5 0 8 10 8 23 -1 16 5 23 22 25 19 3 22 9 22
48 0 35 4 44 18 44 16 1 16 1 0 11 -10 5 -18 15 -18 21 0 7 5 7 14 -1 19 -16
32 5 16 24 -9 11 -9 15 -1 15 13 0 15 37 1 42 -6 2 -6 8 0 18 8 13 10 12 10
-2 0 -22 26 -24 34 -2 3 9 6 40 6 69 0 48 2 53 20 48 18 -5 20 0 20 36 0 34 4
43 23 51 21 8 21 9 2 9 -12 1 -27 -5 -34 -11 -11 -11 -11 -9 -2 9 8 15 17 20
32 16 19 -5 21 -3 17 22 -8 40 9 85 30 78 11 -5 14 -2 9 10 -3 9 -2 19 3 22 6
4 10 11 10 16 0 6 -4 7 -10 4 -13 -8 -13 5 3 38 6 15 20 27 30 27 13 0 17 9
18 43 0 45 17 101 18 63 2 -38 13 -6 17 45 2 32 -1 56 -7 60 -7 4 -8 12 -4 18
5 9 11 7 19 -5 7 -9 18 -14 24 -10 15 9 16 43 2 51 -5 3 -8 0 -7 -7 2 -7 2
-10 0 -5 -3 4 -9 5 -14 1 -5 -3 -4 6 3 21 8 18 14 22 20 13 5 -9 8 -6 8 9 0
37 11 55 25 43 10 -8 13 -3 13 24 0 18 3 45 6 57 5 16 0 12 -13 -11 -25 -43
-27 -34 -4 14 9 19 20 33 25 30 4 -3 8 1 8 8 0 11 2 11 9 0 5 -9 10 9 14 48 3
34 10 67 16 73 7 7 8 3 4 -12 -3 -12 -1 -21 6 -21 6 0 11 8 12 18 0 9 2 34 4
55 2 22 0 35 -5 32 -6 -4 -11 -16 -11 -28 -1 -18 -2 -19 -6 -4 -3 10 2 26 10
35 8 9 17 24 20 32 4 12 6 11 6 -2 1 -10 8 -18 16 -18 12 0 15 13 16 58 0 31
3 51 6 45 2 -7 10 -13 17 -13 14 0 15 50 2 89 -6 16 -5 21 3 17 6 -4 11 -2 11
3 0 6 8 11 19 11 21 0 26 45 7 69 -8 12 -8 13 2 7 6 -4 12 -3 12 1 0 5 -6 15
-12 22 -10 11 -10 13 0 7 6 -4 12 -3 12 2 0 5 9 12 20 15 16 4 20 14 22 49 0
23 0 53 -1 65 -1 12 3 24 9 28 6 4 7 -1 3 -11 -4 -11 -3 -15 4 -11 7 5 9 -1 5
-15 -3 -14 -2 -19 6 -14 7 4 12 31 12 62 0 47 2 54 20 54 16 0 20 7 20 34 0
19 3 43 7 53 6 16 5 16 -10 5 -14 -12 -15 -11 -4 12 8 17 20 26 35 26 20 0 23
5 22 33 -5 82 -1 99 20 92 18 -6 20 -2 20 35 0 34 4 43 21 47 19 5 20 10 14
73 -4 42 -3 70 3 74 6 3 8 -2 5 -13 -4 -16 -1 -19 16 -14 12 3 21 13 20 22 -5
50 2 71 21 71 17 0 20 7 22 43 0 23 1 50 0 60 -1 11 5 17 18 17 17 0 21 6 20
33 0 77 4 92 28 90 24 -3 31 22 10 30 -10 4 -10 6 0 6 6 1 12 14 12 30 0 16
-6 32 -12 34 -10 4 -10 6 -1 6 6 1 15 -3 18 -9 3 -5 14 -10 23 -10 13 0 12 3
-6 16 -12 8 -22 23 -21 32 0 11 4 9 10 -8 8 -20 12 -22 19 -10 13 20 12 80 -1
80 -5 0 -7 -5 -3 -12 5 -7 3 -8 -5 -3 -12 7 -10 30 5 69 6 15 -72 16 -860 16
l-866 0 -11 -27z m1651 -326 c0 -8 -7 -14 -15 -14 -8 0 -15 6 -15 14 0 7 7 13
15 13 8 0 15 -6 15 -13z m-46 -132 c-4 -8 -10 -12 -15 -9 -5 3 -9 0 -9 -5 0
-6 -4 -11 -10 -11 -25 0 2 28 37 39 1 1 0 -6 -3 -14z m-127 -287 c-3 -8 -6 -5
-6 6 -1 11 2 17 5 13 3 -3 4 -12 1 -19z m-237 -692 c0 -2 -7 -6 -15 -10 -8 -3
-15 -1 -15 4 0 6 7 10 15 10 8 0 15 -2 15 -4z m-287 -717 c-4 -15 -8 -17 -14
-8 -6 11 4 28 18 29 0 0 -1 -9 -4 -21z m-176 -521 c-3 -8 -6 -5 -6 6 -1 11 2
17 5 13 3 -3 4 -12 1 -19z m-78 -201 c0 -9 -2 -8 -6 1 -2 6 -10 9 -15 6 -7 -4
-8 -2 -4 5 9 13 26 5 25 -12z m-124 -265 c-15 -16 -16 -15 -4 12 7 15 15 23
17 16 3 -7 -3 -19 -13 -28z m-25 -76 c0 -3 -4 -8 -10 -11 -5 -3 -10 -1 -10 4
0 6 5 11 10 11 6 0 10 -2 10 -4z m-33 -88 c-3 -8 -6 -5 -6 6 -1 11 2 17 5 13
3 -3 4 -12 1 -19z m-77 -215 c0 -5 -8 -17 -17 -28 -14 -18 -15 -18 -9 -2 3 10
6 23 6 28 0 5 5 9 10 9 6 0 10 -3 10 -7z m-161 -478 c0 -5 -4 -3 -9 5 -5 8 -9
22 -9 30 0 16 17 -16 18 -35z m-249 -645 c0 -5 -7 -10 -15 -10 -8 0 -15 5 -15
10 0 6 7 10 15 10 8 0 15 -4 15 -10z m-44 -157 c-11 -11 -17 4 -9 23 7 18 8
18 11 1 2 -10 1 -21 -2 -24z m-286 -680 c-11 -17 -11 -17 -6 0 3 10 6 24 7 30
0 9 2 9 5 0 3 -7 0 -20 -6 -30z m-56 -162 c3 -5 -1 -11 -9 -14 -9 -4 -12 -1
-8 9 6 16 10 17 17 5z m-93 -238 c-8 -15 -10 -15 -11 -2 0 17 10 32 18 25 2
-3 -1 -13 -7 -23z m-84 -225 c-3 -8 -6 -5 -6 6 -1 11 2 17 5 13 3 -3 4 -12 1
-19z m-70 -180 c-3 -8 -6 -5 -6 6 -1 11 2 17 5 13 3 -3 4 -12 1 -19z m-96
-251 c-10 -9 -11 -8 -5 6 3 10 9 15 12 12 3 -3 0 -11 -7 -18z"/>
<path d="M14415 15338 c-27 -76 -251 -689 -335 -918 -60 -162 -177 -482 -260
-710 -84 -228 -235 -642 -337 -920 -102 -278 -218 -595 -258 -705 -40 -110
-172 -470 -293 -800 -121 -330 -297 -811 -392 -1070 -95 -258 -210 -573 -257
-700 -46 -126 -140 -383 -209 -570 -68 -187 -175 -479 -238 -650 -72 -196
-110 -314 -104 -320 6 -7 309 -10 870 -10 l861 0 14 48 c8 26 17 46 21 43 4
-2 8 9 9 25 1 17 13 56 27 87 14 31 27 67 31 79 4 15 11 20 23 17 15 -5 15 -4
2 5 -10 7 -11 14 -5 19 6 4 12 20 13 36 1 16 8 39 15 50 8 12 22 47 32 78 10
32 22 55 26 52 5 -3 9 7 9 23 0 15 9 48 20 72 11 24 20 48 20 53 0 10 35 96
65 163 8 17 17 44 21 60 4 17 16 41 28 54 12 14 14 21 6 16 -12 -6 -13 -5 -2
6 6 7 12 21 12 31 0 10 9 35 20 55 11 21 20 44 20 52 0 8 8 33 18 55 26 56 62
150 62 159 0 4 8 26 19 50 10 23 26 65 36 92 10 28 22 54 26 60 5 5 9 16 9 25
1 8 9 33 20 55 11 22 19 47 20 55 0 8 8 29 18 45 11 17 22 47 26 68 4 21 13
40 20 43 7 3 13 19 14 35 0 17 10 46 21 65 12 19 21 43 21 52 0 9 6 29 14 43
7 15 21 50 31 78 9 28 20 53 25 56 4 3 11 22 15 42 3 21 15 53 26 71 10 18 19
39 19 47 0 20 22 65 29 61 3 -2 6 8 7 24 1 15 10 47 21 71 26 58 63 152 63
162 0 4 9 26 19 50 11 23 25 60 32 82 l13 40 8 -60 c5 -33 33 -530 64 -1105
30 -575 61 -1164 69 -1310 8 -146 15 -273 15 -282 0 -12 10 -18 38 -20 22 -2
36 -8 35 -15 -2 -7 12 -15 30 -18 17 -3 539 -5 1159 -3 619 2 1124 0 1122 -3
-2 -4 -14 -9 -26 -11 -20 -5 -1330 -357 -1813 -488 -190 -52 -1251 -338 -1467
-396 -295 -79 -399 -107 -698 -188 -173 -46 -407 -109 -520 -140 -501 -134
-1447 -389 -1750 -471 -154 -42 -564 -152 -765 -206 -82 -23 -206 -56 -275
-74 -69 -19 -294 -80 -500 -135 -206 -56 -409 -110 -450 -121 -41 -11 -275
-74 -520 -140 -245 -66 -511 -138 -591 -160 -269 -73 -466 -98 -825 -106 -163
-4 -321 -1 -423 6 -785 59 -1439 357 -1843 841 -451 540 -677 1286 -629 2080
15 246 62 564 111 750 5 19 19 73 30 120 35 136 112 384 148 475 11 28 26 66
32 85 22 60 51 133 71 175 10 22 19 44 19 48 0 13 45 109 167 354 66 134 113
239 110 248 -19 47 -94 -16 -289 -238 -621 -707 -1378 -1768 -1951 -2736 -254
-429 -597 -1092 -753 -1451 -293 -680 -456 -1227 -531 -1780 -23 -175 -23
-563 0 -720 37 -250 110 -474 242 -745 304 -624 838 -1098 1525 -1355 47 -17
101 -37 120 -45 73 -28 281 -88 363 -105 31 -6 57 -15 57 -19 0 -5 33 -11 73
-14 91 -9 117 -16 117 -33 0 -10 22 -13 98 -13 53 0 112 -5 131 -10 19 -6 38
-8 44 -4 6 3 7 1 3 -5 -4 -7 -19 -9 -36 -5 -19 3 -30 1 -30 -6 0 -8 58 -11
206 -10 195 1 247 -4 195 -18 -60 -16 25 -23 282 -23 240 0 278 2 273 15 -3 8
-1 17 5 21 5 3 91 5 190 5 98 0 189 4 202 9 20 8 20 9 2 10 -18 1 -19 1 -3 11
10 5 66 10 125 10 74 0 116 5 133 14 22 13 23 14 5 15 -15 1 -13 4 10 14 17 7
31 10 32 7 2 -3 50 -5 108 -3 96 3 105 5 105 23 0 17 8 19 79 19 74 0 80 1 76
20 -3 13 2 20 13 21 11 0 12 2 4 6 -27 11 2 23 51 21 50 -1 51 -2 10 -5 -61
-6 -53 -20 11 -22 42 -1 55 3 60 16 6 15 8 15 16 3 8 -13 10 -12 10 2 0 14 12
18 68 20 37 2 66 7 65 13 -3 17 22 24 95 26 63 2 72 4 72 20 0 17 9 19 68 20
46 0 61 3 47 9 -16 7 -17 9 -3 9 9 1 18 6 20 11 3 10 49 18 106 19 12 1 31 10
41 20 11 11 37 21 58 23 30 4 37 8 35 23 -3 14 1 16 17 12 12 -3 19 -1 16 3
-3 5 17 6 44 3 41 -4 49 -2 53 14 5 18 26 24 96 27 12 1 22 6 22 12 0 13 32
24 67 24 12 0 24 8 26 18 4 16 5 16 6 0 0 -10 5 -18 11 -18 5 0 7 6 4 14 -8
20 7 26 75 27 44 1 61 5 61 15 0 8 -5 14 -11 14 -5 0 -7 -5 -3 -12 5 -8 2 -9
-10 -5 -10 4 -21 7 -24 7 -4 1 9 9 27 19 24 13 47 17 74 13 35 -4 39 -3 33 14
-5 17 -1 19 34 20 22 1 46 7 54 13 11 9 15 9 19 -1 2 -7 8 -9 13 -5 5 5 0 15
-11 24 -16 13 -17 15 -3 10 12 -4 18 -1 18 9 0 8 4 13 9 9 5 -3 12 -1 16 5 9
15 25 12 25 -5 0 -10 11 -15 35 -15 28 0 35 4 35 19 0 24 15 30 59 23 26 -4
32 -2 26 8 -11 17 13 30 59 30 27 0 37 4 33 13 -8 21 23 33 76 31 40 -2 47 0
47 16 0 15 10 20 45 25 24 4 47 6 51 4 8 -5 26 29 20 39 -2 4 18 5 45 4 44 -4
49 -2 49 17 0 16 6 21 25 21 14 0 25 5 25 10 0 6 5 10 11 10 5 0 7 -4 4 -10
-4 -6 7 -10 24 -10 26 0 31 4 31 24 0 22 3 24 43 20 23 -2 37 -2 30 2 -9 4 -8
10 3 22 11 14 29 17 75 16 52 -2 58 0 42 11 -10 7 -14 17 -10 21 4 5 12 2 17
-6 7 -10 10 -11 10 -2 0 6 11 12 25 12 14 0 25 5 25 11 0 8 6 7 17 -2 15 -12
16 -12 11 8 -7 25 7 33 58 33 26 0 34 4 34 18 0 18 30 25 101 24 9 0 16 7 15
16 -1 11 8 18 27 20 15 2 27 9 27 17 0 17 27 26 80 27 22 0 40 4 40 9 0 5 -6
9 -12 10 -27 2 59 20 94 20 30 -1 37 3 40 22 3 19 8 22 46 20 35 -2 42 1 42
16 0 20 26 31 78 31 34 0 44 15 15 23 -17 4 -17 5 0 6 9 0 17 6 17 11 0 6 -3
9 -7 9 -21 -3 -32 2 -27 15 6 17 43 9 51 -10 7 -18 73 -15 73 3 0 16 48 36 72
30 13 -4 18 1 18 14 0 17 8 19 60 19 53 0 60 2 60 20 0 12 7 20 18 21 9 1 28
2 42 2 18 2 24 7 22 20 -3 17 20 23 71 19 11 -1 17 5 17 18 0 13 -7 20 -18 20
-20 0 -26 30 -8 42 16 11 48 10 41 -2 -3 -5 -1 -10 4 -10 6 0 11 5 11 12 0 6
3 8 6 5 4 -4 1 -13 -5 -21 -16 -19 -4 -24 39 -15 19 3 28 7 20 8 -25 3 53 34
81 32 18 -2 28 5 36 22 9 20 16 23 48 19 32 -4 37 -2 32 12 -8 21 34 39 70 30
15 -4 24 -3 20 3 -3 5 -1 15 4 23 8 13 10 13 19 0 6 -10 10 -11 10 -2 0 7 13
12 29 12 16 0 32 6 34 13 4 9 6 9 6 0 1 -7 6 -13 12 -13 5 0 9 10 7 22 -3 20
1 22 40 21 35 -1 42 2 42 17 0 15 10 20 44 25 30 5 46 13 48 24 2 9 10 16 18
17 8 1 25 2 38 2 15 2 22 8 22 22 0 18 7 20 65 20 57 0 65 2 63 18 -2 11 4 18
20 20 14 2 20 8 15 15 -5 9 -3 9 8 0 8 -6 26 -11 41 -10 26 2 32 9 29 30 -1 6
40 9 77 6 4 0 9 10 13 23 4 16 11 22 26 20 12 -2 24 2 28 8 3 5 12 10 18 10 7
0 6 -4 -3 -11 -13 -9 -13 -10 0 -6 8 2 16 13 18 24 2 14 10 21 25 21 43 -1 87
6 87 14 0 4 -7 8 -17 8 -9 0 -13 3 -9 7 8 9 13 9 74 11 35 2 42 5 42 22 0 15
7 20 25 20 14 0 25 5 25 10 0 6 8 10 18 10 14 0 15 -2 2 -10 -13 -8 -12 -10 3
-10 10 0 17 8 17 20 0 21 9 24 77 21 37 -2 42 0 45 21 2 18 9 23 31 22 30 -1
31 0 17 26 -8 16 -7 18 4 14 8 -3 17 -15 19 -27 4 -22 4 -22 6 1 1 22 13 27
58 23 15 -1 22 5 25 21 2 18 9 23 31 23 15 -1 27 3 27 8 0 5 7 4 15 -3 12 -10
15 -10 15 4 0 9 -6 16 -14 16 -7 0 -28 6 -44 13 l-31 13 28 11 c25 9 28 8 24
-8 -4 -15 0 -19 21 -19 16 0 26 -5 26 -15 0 -8 7 -15 15 -15 8 0 14 3 14 8 -4
26 4 32 46 32 38 0 45 3 43 18 -2 13 5 18 39 20 46 3 61 26 33 50 -13 11 -12
11 7 3 25 -13 92 -14 110 -3 6 4 15 20 19 36 6 24 8 26 16 12 5 -9 14 -16 21
-16 7 0 6 4 -3 10 -12 8 -11 10 7 10 12 0 24 -6 26 -12 3 -7 6 -3 6 10 1 18 7
22 34 23 17 1 38 1 45 0 10 -2 16 18 14 49 0 3 6 10 13 17 10 9 18 8 36 -7 17
-16 25 -17 36 -8 8 6 12 17 9 25 -3 8 -1 11 4 8 6 -3 10 -14 11 -23 0 -12 3
-11 9 6 8 18 17 22 50 22 33 0 40 3 40 20 0 15 7 20 24 20 14 0 28 5 32 12 5
8 0 9 -16 5 -13 -3 -19 -2 -14 3 5 5 23 10 39 12 18 2 29 8 27 16 -2 10 2 10
17 2 36 -19 61 -13 61 15 0 14 5 25 11 25 6 0 8 -8 4 -19 -3 -11 -1 -22 5 -26
6 -3 10 3 10 17 0 20 4 23 40 22 31 -2 41 2 45 17 6 18 31 25 79 20 14 -1 17
4 13 18 -4 16 2 20 39 26 35 5 44 10 44 25 0 13 6 19 18 18 41 -3 60 3 65 22
5 20 21 24 93 22 27 -1 31 2 27 18 -5 17 0 20 28 21 19 1 40 1 47 0 8 -1 12 6
10 16 -2 15 5 19 45 21 26 2 47 7 47 13 0 5 5 9 11 9 5 0 7 -4 4 -10 -3 -5 -2
-10 3 -10 18 0 21 29 4 33 -17 5 37 11 69 9 18 -1 43 44 33 59 -3 5 -15 7 -27
4 -12 -2 -16 -2 -9 1 6 3 9 10 6 16 -4 6 2 6 14 -1 30 -16 49 -14 26 3 -17 13
-17 15 -2 21 9 4 27 5 39 3 l23 -3 -27 -29 c-28 -30 -29 -49 -2 -26 10 8 15 9
15 1 0 -6 5 -11 10 -11 6 0 10 11 10 25 0 15 5 25 13 24 39 -5 77 2 77 15 0
15 30 26 75 26 21 0 26 3 16 9 -7 5 -10 14 -6 20 5 9 10 9 21 0 11 -9 14 -8
14 3 0 10 11 13 40 11 22 -1 42 2 45 8 4 5 -4 9 -17 10 l-23 0 22 9 c12 5 41
10 63 12 24 1 40 7 40 14 0 20 19 27 72 25 45 -1 50 1 45 19 -5 20 4 24 49 21
24 -2 49 23 39 39 -3 5 -13 10 -21 10 -17 0 -19 26 -3 36 6 3 15 1 19 -6 4 -7
13 -9 20 -5 9 6 10 9 0 15 -7 4 -8 10 -4 12 5 3 17 -3 27 -14 9 -10 13 -18 7
-18 -5 0 -10 -4 -10 -10 0 -19 48 -11 55 10 6 20 17 23 83 22 25 0 32 3 28 13
-7 18 3 24 45 26 64 2 91 10 85 25 -4 10 2 14 20 14 17 0 28 7 31 20 5 20 19
24 57 20 10 -1 23 4 27 12 7 10 9 10 9 1 0 -7 7 -13 15 -13 13 0 14 4 5 20
-12 22 -13 22 47 24 37 1 43 4 43 23 0 23 15 39 23 26 9 -15 97 -2 97 13 0 8
-6 14 -14 14 -13 0 -26 20 -26 42 0 6 9 8 20 5 21 -5 44 15 32 28 -4 5 -1 5 6
1 8 -5 9 -13 2 -26 -17 -32 -12 -40 25 -37 26 1 35 7 35 20 0 9 -7 17 -15 17
-8 0 -15 9 -15 20 0 11 3 20 8 20 12 0 38 -20 27 -21 -15 -2 37 -17 63 -18 16
-1 22 5 22 19 0 18 25 27 62 21 18 -2 59 20 53 29 -7 11 -6 11 45 13 26 2 36
7 40 22 5 16 14 20 47 19 36 -1 42 2 45 20 2 17 12 22 48 26 25 3 44 8 43 13
-7 18 -2 27 15 27 10 0 23 5 30 12 7 7 12 8 12 2 0 -6 13 -11 28 -12 26 0 28
2 24 24 -3 18 -8 22 -15 15 -19 -19 -27 -12 -17 13 5 13 6 26 3 29 -3 3 4 3
15 0 11 -2 23 -15 27 -26 4 -14 8 -17 12 -9 2 6 9 12 14 12 6 0 7 -4 4 -10 -3
-6 5 -10 19 -10 18 0 24 4 20 14 -7 19 6 26 55 28 33 1 41 5 41 20 0 14 8 18
43 19 23 1 47 1 54 0 6 -1 13 9 15 21 2 16 10 23 28 25 14 0 32 1 41 2 9 1 19
10 22 21 3 12 13 19 24 18 46 -4 63 2 63 22 0 17 7 20 40 20 33 0 40 4 40 19
0 24 13 29 78 25 30 -2 51 0 47 5 -14 23 7 39 46 36 37 -3 53 8 27 18 -10 4
-10 6 0 6 7 1 11 5 7 11 -3 5 -13 6 -23 3 -15 -6 -16 -5 -2 12 14 17 13 17
-10 11 -21 -6 -22 -5 -8 4 13 8 24 8 37 0 29 -15 38 -12 15 6 -18 14 -18 15 6
8 31 -8 50 -24 30 -25 -9 0 -7 -4 5 -8 14 -6 22 -4 27 8 6 14 7 14 7 -1 1 -27
39 -23 43 4 2 15 10 23 23 24 56 2 65 5 65 19 0 8 -14 24 -31 34 -24 15 -27
20 -14 25 25 9 32 7 15 -5 -12 -8 -9 -10 12 -6 16 2 26 0 25 -7 -1 -6 12 -11
31 -11 17 0 32 4 31 9 -1 15 24 26 64 26 27 0 37 4 37 16 0 10 6 14 15 10 8
-3 15 -1 15 4 0 6 11 10 25 10 18 0 25 5 25 19 0 11 -6 22 -12 24 -7 3 2 3 20
0 24 -4 32 -2 32 10 0 8 7 18 16 21 23 9 24 8 25 -16 1 -18 2 -19 6 -5 2 9 9
15 14 11 5 -3 7 -10 4 -15 -4 -5 -1 -9 6 -9 6 0 9 8 6 20 -5 18 0 20 45 20 41
0 49 3 44 15 -8 22 12 28 107 34 10 1 17 9 17 21 0 17 7 20 39 20 30 0 40 4
44 20 4 16 14 20 46 20 28 0 41 4 41 14 0 13 43 31 67 27 6 -1 14 3 18 9 3 5
1 10 -4 10 -6 0 -11 5 -11 10 0 6 7 10 15 10 8 0 15 -7 15 -15 0 -8 4 -15 10
-15 5 0 7 6 4 14 -3 9 4 19 16 26 15 8 20 8 16 1 -9 -14 14 -14 34 -1 10 6 11
10 3 10 -7 0 -13 4 -13 8 0 7 41 13 98 14 15 0 22 6 22 19 0 13 8 19 23 20 53
3 69 7 80 19 9 10 9 11 0 6 -6 -3 -14 -2 -17 3 -6 9 48 21 98 21 21 0 27 4 22
15 -5 15 30 38 46 29 3 -2 15 6 25 19 15 19 25 22 62 19 36 -4 43 -2 38 11 -7
19 31 31 86 28 22 -2 37 2 37 9 0 6 -5 8 -11 4 -8 -4 -8 0 0 15 6 11 19 20 29
18 9 -1 17 3 17 8 0 6 -12 10 -27 10 -15 0 -24 3 -20 7 4 4 38 8 76 9 42 1 63
5 54 10 -9 6 -9 9 -1 9 6 0 15 -4 18 -10 12 -20 35 -10 35 15 0 15 5 25 13 24
6 -1 33 -1 59 0 40 1 47 4 45 21 -1 22 -17 28 -17 8 0 -7 -6 -4 -12 7 -6 11
-15 23 -20 26 -5 3 5 12 22 19 17 7 33 10 37 7 3 -3 -7 -9 -22 -13 l-28 -7 24
-13 c35 -19 99 -18 99 2 0 11 -6 14 -22 9 -15 -5 -20 -4 -13 3 6 5 41 12 79
15 78 7 100 17 36 17 -63 0 -42 11 31 16 35 3 67 10 71 17 6 9 8 9 8 0 0 -22
18 -14 22 10 3 19 8 22 46 19 36 -2 42 0 42 18 0 14 7 20 21 20 15 0 19 5 15
15 -3 8 -1 15 4 15 6 0 10 -6 10 -12 0 -7 10 -1 21 14 16 22 26 26 54 23 26
-4 35 -1 35 10 0 8 5 15 10 15 6 0 9 -4 8 -9 -2 -5 2 -9 7 -10 6 -1 10 3 10 8
0 16 9 20 53 22 31 2 41 7 39 18 -2 16 59 35 77 24 5 -4 7 8 3 28 -3 19 -3 28
0 22 8 -20 44 -15 50 6 3 11 13 21 24 24 15 4 19 0 19 -18 0 -16 5 -22 17 -21
10 2 18 11 18 22 0 13 6 18 19 16 10 -2 23 2 27 10 7 10 9 10 9 1 0 -7 7 -13
15 -13 18 0 20 29 3 35 -7 2 -31 6 -53 10 -38 6 -39 6 -20 -10 11 -9 15 -14 8
-11 -6 4 -14 0 -17 -6 -5 -11 -7 -11 -12 0 -3 6 -11 9 -17 6 -7 -4 -3 2 8 13
24 24 105 57 105 43 0 -6 6 -10 14 -10 8 0 18 -5 21 -10 4 -7 -3 -9 -22 -5
-22 5 -25 4 -11 -4 28 -19 83 -9 95 17 10 20 8 22 -15 23 -22 1 -19 3 12 10
21 5 41 7 44 4 3 -3 -2 -5 -12 -5 -9 0 -15 -4 -12 -8 9 -15 76 -1 77 17 0 12
2 11 8 -4 7 -17 9 -16 15 13 7 29 36 47 36 22 0 -5 11 -10 25 -10 18 0 25 5
25 20 0 19 17 25 61 21 10 -1 19 8 23 23 5 22 10 24 46 19 36 -5 40 -3 40 16
0 23 15 29 23 9 4 -10 6 -10 6 0 1 8 17 12 46 12 38 0 45 3 45 19 0 16 8 20
42 23 24 2 43 9 46 17 3 9 0 11 -9 6 -11 -6 -11 -5 -2 5 6 7 28 14 49 16 23 2
42 11 51 24 9 12 25 20 44 20 16 0 39 9 51 20 15 13 36 20 64 20 37 0 42 2 37
20 -5 17 0 20 28 21 19 1 40 1 47 0 6 -1 12 7 12 18 0 16 8 20 43 23 34 2 41
6 39 21 -2 14 5 17 45 19 74 2 78 3 75 18 -4 18 17 30 54 30 23 0 33 5 37 20
4 16 14 20 46 20 34 0 41 3 41 20 0 11 5 20 11 20 5 0 7 -4 4 -10 -3 -6 -2
-10 3 -10 6 0 12 6 15 14 4 9 15 12 34 8 24 -4 26 -3 16 10 -11 13 -3 17 57
27 42 8 69 17 67 24 -1 7 15 13 41 15 40 3 46 9 44 42 0 3 17 5 39 4 31 0 39
3 39 18 0 10 8 18 18 19 9 1 24 2 32 3 8 2 27 3 41 4 17 1 29 9 32 22 4 16 14
20 44 20 30 0 40 5 48 23 9 19 17 22 63 20 45 -2 52 1 52 18 0 13 7 19 24 19
25 0 43 25 23 34 -7 2 18 5 56 5 60 1 67 3 67 21 0 17 7 20 44 20 36 0 44 3
42 18 -4 21 45 45 57 28 5 -7 12 -5 21 7 7 9 20 17 28 17 8 0 20 10 26 23 6
12 11 16 11 10 1 -8 15 -13 37 -13 26 0 33 3 27 13 -17 27 -10 32 40 28 42 -3
49 -1 44 13 -3 8 -2 18 3 21 6 4 10 -2 10 -11 0 -16 1 -16 14 2 10 13 26 19
53 19 30 0 38 4 37 18 -2 14 6 17 42 17 37 0 44 3 44 20 0 20 21 26 73 21 11
-2 17 5 17 18 0 11 -8 22 -17 24 -10 3 -4 5 12 4 62 -2 96 3 90 13 -3 6 -1 10
5 10 7 0 9 7 5 18 -4 11 -3 14 4 7 6 -6 30 -9 54 -7 33 3 45 9 52 25 8 18 17
22 46 20 31 -2 38 1 43 20 5 20 10 22 58 19 48 -3 54 -2 55 17 1 13 -4 21 -15
22 -14 0 -14 2 -2 6 8 3 19 11 23 17 6 7 7 4 3 -7 -5 -16 -1 -18 37 -14 41 4
42 5 42 40 0 19 3 39 7 43 4 3 6 -3 3 -14 -4 -22 27 -42 33 -22 3 8 8 7 19 -1
12 -10 16 -10 23 1 5 8 7 17 4 21 -4 7 82 24 104 20 6 -1 12 3 12 8 0 5 -10
11 -22 13 -13 2 6 8 42 14 53 8 64 12 62 27 -2 13 5 17 30 18 18 1 38 1 44 0
7 -1 14 8 17 19 3 11 9 20 14 19 4 -1 24 -1 43 0 23 1 30 4 22 10 -10 6 -4 12
20 22 18 7 39 14 48 14 60 5 65 8 30 15 -31 6 -27 7 38 15 66 7 72 10 72 30 0
21 4 22 45 20 39 -3 45 -1 45 16 0 10 7 19 15 19 8 0 15 -6 15 -12 0 -9 3 -8
9 2 6 8 8 17 6 20 -2 3 13 5 33 5 29 0 36 4 34 18 -2 13 5 17 30 18 18 1 39 1
46 0 11 -2 17 19 13 42 -1 5 3 6 9 2 5 -3 27 -3 47 1 30 6 33 9 18 14 -27 9
53 29 100 24 31 -3 35 0 35 21 0 22 3 24 32 18 25 -5 29 -3 23 8 -8 12 -6 12
8 0 11 -9 17 -10 18 -2 1 6 2 17 3 24 1 11 9 13 64 16 22 1 26 19 7 33 -5 4
22 8 62 8 67 0 72 2 75 22 3 20 8 23 41 20 32 -3 37 -1 37 17 0 18 6 21 45 21
38 0 45 3 45 20 0 21 6 22 80 23 27 0 36 5 41 21 3 14 12 20 26 18 12 -2 24 2
28 8 3 6 10 8 15 5 5 -3 11 4 15 15 5 15 15 20 45 20 39 0 61 14 38 23 -10 4
-10 8 1 15 18 13 -1 24 -26 15 -23 -8 -15 1 15 16 12 7 21 8 20 4 -2 -5 3 -15
11 -24 20 -21 71 -13 71 12 0 17 8 19 61 19 56 0 60 2 54 20 -6 18 -2 20 39
20 39 0 46 3 46 20 0 20 22 26 73 20 9 -1 17 2 16 7 -4 25 4 33 39 34 20 1 48
4 62 8 l25 7 -25 7 c-42 11 -10 20 93 26 9 1 17 9 17 19 0 15 8 19 37 20 43 2
56 11 43 32 -9 13 -11 13 -20 0 -8 -12 -10 -11 -10 7 0 23 18 23 48 0 9 -7 16
-7 24 1 6 6 16 8 23 6 7 -3 15 4 18 15 3 12 13 21 23 21 9 0 26 7 36 17 10 9
18 11 18 5 0 -6 -6 -13 -12 -15 -7 -3 4 -6 25 -6 31 -1 37 2 37 20 0 16 -5 20
-20 16 -11 -3 -20 -1 -20 4 0 5 23 7 53 4 63 -7 89 5 64 29 -8 9 -22 16 -29
16 -19 1 34 29 55 30 14 0 17 -5 12 -19 -5 -17 -1 -19 42 -17 44 1 47 3 48 29
2 31 15 49 22 30 3 -7 18 -13 35 -13 22 0 29 4 25 15 -8 19 4 25 48 27 22 1
35 6 35 15 0 7 5 13 11 13 5 0 8 4 5 8 -3 4 13 7 35 6 29 -1 39 2 36 11 -3 6
3 19 14 28 10 9 19 12 19 7 0 -6 11 -10 25 -10 18 0 25 5 25 19 0 10 7 22 16
25 8 3 12 11 8 17 -4 8 -3 9 5 5 6 -4 9 -12 6 -17 -4 -5 15 -9 43 -9 44 0 49
2 48 23 -1 20 3 22 43 20 38 -2 42 0 38 18 -4 14 0 19 16 19 22 1 22 1 -1 13
-22 13 -22 13 15 31 38 18 38 18 20 -2 -21 -23 -16 -28 35 -31 29 -1 36 2 32
13 -7 17 21 33 57 31 15 0 26 5 26 12 0 9 -8 11 -21 7 -17 -4 -18 -3 -6 5 8 6
39 11 68 11 36 0 52 4 51 13 -3 28 3 32 41 29 24 -3 40 0 41 7 1 6 3 16 4 21
1 6 3 13 4 17 0 4 8 -2 17 -13 8 -10 13 -13 9 -6 -4 8 4 12 29 12 20 0 36 5
36 10 0 6 -8 10 -17 10 -20 0 -13 8 13 14 10 2 30 7 43 11 l23 8 -21 11 c-20
11 -20 12 12 24 29 10 30 10 13 -3 -11 -8 -14 -15 -8 -15 7 0 12 -7 12 -15 0
-8 9 -15 20 -15 16 0 19 5 16 25 -3 18 1 26 16 31 14 4 17 8 8 14 -8 5 -3 10
15 14 15 4 30 5 33 1 3 -3 -2 -5 -11 -5 -9 0 -15 -8 -14 -18 1 -14 8 -16 39
-14 21 2 41 9 45 15 4 6 1 7 -8 2 -12 -8 -12 -6 0 8 8 11 28 17 52 17 22 0 39
5 39 11 0 5 -6 7 -12 4 -7 -4 -2 3 11 15 17 14 33 19 54 16 25 -4 28 -2 24 15
-5 17 0 19 44 19 43 0 49 3 49 21 0 15 5 19 15 15 8 -3 15 -2 15 3 0 4 19 7
43 7 35 -1 41 2 39 17 -2 13 5 17 30 18 18 1 39 1 46 0 7 -1 12 2 11 6 -4 23
4 33 26 33 14 0 25 4 25 9 0 5 9 7 21 4 16 -5 20 -2 17 13 -2 12 3 19 17 19
57 4 66 6 61 14 -4 5 0 12 6 14 10 4 10 7 0 15 -8 6 10 7 52 5 58 -4 65 -2 71
16 4 14 15 21 31 21 13 0 32 9 42 21 9 11 25 25 34 30 14 8 16 6 12 -8 -5 -17
-5 -17 9 0 8 10 17 14 18 8 2 -5 16 -7 31 -4 17 3 25 10 21 19 -4 11 6 14 45
14 45 0 50 2 47 20 -3 16 2 20 21 20 13 0 27 7 31 16 3 8 12 13 20 10 8 -3 11
-2 8 3 -3 6 15 13 40 17 43 6 73 24 41 24 -9 0 -16 4 -16 10 0 5 6 7 13 4 8
-3 18 5 25 18 7 16 11 18 11 7 1 -12 13 -16 51 -18 43 -1 50 1 50 17 0 10 -11
24 -25 30 -32 15 -38 15 -30 2 3 -6 -1 -7 -9 -4 -22 8 -21 10 16 28 34 18 38
17 42 -11 2 -14 12 -18 44 -19 34 -2 41 1 44 19 3 18 10 21 47 22 26 0 46 5
48 13 3 8 -1 10 -14 6 -14 -5 -15 -4 -7 5 6 7 30 13 52 14 23 1 41 6 41 12 -3
20 1 35 9 34 29 -5 34 2 29 41 -4 32 -2 40 13 45 12 4 16 12 13 25 -3 11 -8
20 -12 20 -4 0 -184 -48 -401 -106 -217 -59 -442 -119 -500 -134 -88 -24 -318
-85 -710 -191 -41 -11 -97 -27 -125 -34 -106 -28 -587 -158 -945 -255 -206
-56 -501 -135 -655 -176 -154 -42 -352 -95 -440 -119 -161 -44 -287 -78 -910
-245 -187 -51 -504 -136 -705 -190 -201 -54 -457 -124 -570 -154 -113 -30
-549 -148 -970 -261 -421 -114 -805 -217 -855 -231 -49 -13 -91 -24 -92 -24
-12 0 6 84 57 260 10 36 22 83 27 105 5 22 14 39 19 38 7 -1 12 24 13 65 1 37
6 84 10 104 l9 37 -62 5 c-33 3 -475 10 -981 17 -506 6 -924 15 -929 19 -5 5
-5 21 -2 36 6 21 9 25 16 14 15 -24 21 -6 22 66 1 38 3 64 5 58 2 -7 13 -10
23 -7 17 5 20 14 20 68 0 60 1 63 22 57 19 -5 21 -2 15 31 -7 44 11 117 23 96
7 -11 10 -10 15 3 4 10 4 21 1 27 -4 5 -2 12 3 15 5 3 7 16 3 28 -3 14 -2 19
6 14 18 -11 38 4 21 15 -12 8 -12 11 1 18 8 6 12 13 8 16 -11 11 13 65 28 65
10 0 14 12 14 39 0 51 15 91 34 91 11 0 14 9 11 31 -5 42 3 59 29 60 16 1 17
2 4 6 -22 5 -24 23 -4 23 9 0 14 10 14 28 -1 44 11 72 29 65 10 -4 14 -2 9 5
-10 17 11 95 29 108 9 7 15 21 13 31 -3 10 4 36 15 57 11 22 25 58 32 80 6 23
16 40 22 39 5 -1 10 10 11 25 1 37 20 84 31 78 5 -3 9 5 9 18 0 38 23 96 38
96 8 0 14 7 14 16 0 9 -5 12 -12 8 -10 -6 -10 -4 -2 7 7 8 15 28 18 46 4 17
14 37 22 44 8 6 14 20 14 30 0 18 25 19 830 19 625 0 829 3 828 12 -2 6 7 14
20 17 24 6 41 42 79 166 8 28 18 54 21 60 3 5 30 79 60 165 30 85 64 183 76
218 12 35 27 67 32 70 5 4 11 21 12 37 2 31 30 112 63 180 10 22 19 47 19 56
0 24 21 80 28 75 4 -2 8 11 9 29 3 42 20 88 30 82 5 -3 9 9 10 25 3 45 23 99
34 93 5 -4 9 14 9 38 l0 45 -122 6 c-68 3 -431 11 -808 17 -377 6 -686 12
-687 13 -10 8 -8 59 3 81 8 15 14 35 15 44 1 9 4 6 9 -9 7 -21 8 -18 7 16 -1
50 22 112 34 92 6 -9 9 -2 9 18 0 53 12 94 26 94 10 0 14 12 14 38 0 41 15 63
36 55 9 -3 14 1 12 13 0 11 0 39 0 62 2 35 6 45 22 49 16 4 20 14 20 52 0 55
9 91 22 91 5 0 6 -4 3 -10 -3 -5 -1 -10 5 -10 7 0 11 14 9 33 -3 54 0 74 10
58 15 -23 34 -1 29 33 -7 45 5 91 22 91 11 0 16 16 20 60 4 50 8 60 23 57 19
-3 24 24 5 31 -10 4 -10 6 0 6 6 1 12 12 12 26 0 20 5 25 26 25 25 0 25 1 22
65 -2 43 2 69 10 77 9 9 12 9 10 1 -2 -6 1 -13 7 -15 5 -1 10 21 11 52 1 52
22 128 23 88 1 -10 6 -18 12 -18 7 0 10 15 7 40 -2 22 0 40 5 40 4 0 7 8 5 18
-3 16 46 17 898 20 l901 2 42 128 c24 70 48 136 55 147 7 11 16 36 19 55 11
64 51 170 65 170 8 0 12 6 9 13 -7 18 12 107 23 107 4 0 11 17 14 38 12 63 16
71 34 66 12 -4 13 -3 5 3 -13 9 -5 57 20 115 10 24 13 25 20 10 4 -10 6 -5 3
15 -6 40 20 134 37 130 7 -1 12 8 12 20 0 12 4 25 8 29 12 12 8 26 -5 18 -9
-5 -9 -2 1 9 7 9 20 17 28 17 13 0 15 10 11 50 -3 28 -1 53 3 56 5 3 6 -2 3
-10 -4 -12 0 -16 15 -16 18 0 21 5 19 35 -1 22 -7 35 -16 35 -11 0 -13 8 -8
35 l7 35 -2640 0 -2639 0 -803 -936 c-441 -515 -826 -962 -855 -993 -53 -55
-53 -56 -44 -22 10 36 20 52 20 33 0 -7 5 -12 10 -12 6 0 10 20 10 45 0 25 3
44 8 44 25 -4 33 4 32 29 -5 75 -1 93 22 90 11 -2 23 3 26 11 3 8 0 11 -6 7
-5 -3 -13 1 -16 10 -3 8 -2 12 3 9 5 -3 13 0 17 6 3 6 0 15 -7 20 -12 7 -12 9
0 9 7 0 11 6 8 13 -3 7 2 26 9 42 8 17 12 22 9 13 -3 -11 1 -18 10 -18 10 0
15 10 15 31 0 19 -4 28 -11 23 -8 -5 -8 -1 0 14 6 11 21 23 33 25 l23 4 -22 2
c-22 1 -22 2 -8 47 15 50 28 69 48 69 7 0 13 14 15 30 l2 30 -15 -25 c-13 -20
-15 -21 -11 -5 14 59 36 100 50 97 9 -2 16 2 16 8 0 5 -6 10 -12 10 -9 0 -9 3
-3 8 6 4 11 16 10 27 0 14 8 21 24 23 22 3 23 7 19 52 -3 29 0 57 8 71 7 13
13 18 14 11 0 -8 6 -12 12 -10 11 4 14 23 17 111 1 25 3 26 21 17 16 -9 20 -8
20 5 0 10 -5 13 -12 9 -9 -6 -9 -3 0 9 8 9 11 25 7 37 -5 16 -2 23 14 27 12 3
21 12 21 20 0 8 -4 12 -9 8 -18 -10 -19 10 -4 45 9 19 16 38 15 42 -1 4 7 5
18 3 21 -4 24 2 35 88 5 35 10 47 20 43 8 -3 14 5 17 24 3 20 1 27 -9 23 -9
-4 -11 0 -7 11 5 14 23 21 47 17 4 0 7 13 7 30 0 28 -1 29 -16 15 -22 -23 -29
-20 -12 7 8 12 18 40 22 61 4 22 11 35 15 28 4 -7 11 -4 20 10 11 18 11 20 -4
14 -13 -5 -16 -2 -11 10 3 8 6 18 6 20 0 3 4 2 10 -1 6 -3 7 1 4 9 -4 10 -1
16 7 16 17 1 53 75 46 95 -3 7 1 19 9 25 11 10 14 10 14 -1 1 -10 3 -10 10 2
5 9 8 52 7 97 l-2 82 -878 0 c-693 0 -879 -3 -882 -12z m8002 -170 c-3 -8 -6
-5 -6 6 -1 11 2 17 5 13 3 -3 4 -12 1 -19z m-3661 -215 c-14 -40 -56 -156
-513 -1413 -157 -432 -404 -1113 -549 -1515 -146 -401 -283 -777 -304 -835
-21 -58 -113 -310 -204 -560 -440 -1218 -727 -2003 -736 -2018 -7 -13 -9 -7
-10 27 0 24 -18 496 -40 1050 -22 553 -49 1236 -60 1516 -11 281 -25 614 -30
740 -6 127 -10 253 -10 281 l0 52 128 139 c70 77 431 474 802 883 371 409 749
826 840 925 441 483 647 710 668 736 31 38 34 37 18 -8z m-2804 -285 c-6 -6
-7 0 -4 19 5 21 7 23 10 9 2 -10 0 -22 -6 -28z m-412 -1138 c0 -5 -4 -10 -10
-10 -5 0 -10 5 -10 10 0 6 5 10 10 10 6 0 10 -4 10 -10z m12675 -2650 c-3 -5
-12 -10 -18 -10 -7 0 -6 4 3 10 19 12 23 12 15 0z m-107 -54 c-10 -7 -15 -16
-11 -20 4 -4 -1 -4 -11 0 -17 6 -16 8 5 20 31 17 39 17 17 0z m-77 -35 c-8 -5
-11 -16 -8 -25 5 -12 0 -16 -18 -16 -35 0 -39 17 -8 33 31 16 56 22 34 8z
m-241 -121 c-8 -5 -19 -10 -25 -10 -5 0 -3 5 5 10 8 5 20 10 25 10 6 0 3 -5
-5 -10z m-165 -80 c-3 -5 -12 -10 -18 -10 -7 0 -6 4 3 10 19 12 23 12 15 0z
m-150 -70 c-3 -5 -11 -10 -16 -10 -6 0 -7 5 -4 10 3 6 11 10 16 10 6 0 7 -4 4
-10z m-35 -14 c0 -2 -7 -7 -16 -10 -8 -3 -12 -2 -9 4 6 10 25 14 25 6z m-60
-28 c-14 -6 -42 -19 -62 -29 -21 -10 -38 -15 -38 -10 0 5 8 11 18 15 9 3 33
12 52 20 41 17 67 20 30 4z m70 8 c0 -3 -4 -8 -10 -11 -5 -3 -10 -1 -10 4 0 6
5 11 10 11 6 0 10 -2 10 -4z m-255 -86 c-3 -5 -12 -10 -18 -10 -7 0 -6 4 3 10
19 12 23 12 15 0z m-136 -69 c10 -7 8 -9 -10 -9 -13 0 -35 -3 -49 -6 -20 -6
-19 -4 5 8 37 18 37 18 54 7z m-72 -53 c-3 -8 -6 -5 -6 6 -1 11 2 17 5 13 3
-3 4 -12 1 -19z m-147 -32 c0 -2 -7 -7 -16 -10 -8 -3 -12 -2 -9 4 6 10 25 14
25 6z m-630 -276 c0 -5 -2 -10 -4 -10 -3 0 -8 5 -11 10 -3 6 -1 10 4 10 6 0
11 -4 11 -10z m-7546 -146 c3 -8 2 -12 -4 -9 -6 3 -10 10 -10 16 0 14 7 11 14
-7z m7063 -60 c-3 -3 -12 -4 -19 -1 -8 3 -5 6 6 6 11 1 17 -2 13 -5z m-127
-54 c-8 -5 -19 -10 -25 -10 -5 0 -3 5 5 10 8 5 20 10 25 10 6 0 3 -5 -5 -10z
m-7028 -112 c-8 -8 -9 -4 -5 13 4 13 8 18 11 10 2 -7 -1 -18 -6 -23z m6608
-68 c0 -5 -10 -10 -22 -10 -19 0 -20 2 -8 10 19 13 30 13 30 0z m-290 -135 c0
-1 -8 -9 -17 -16 -11 -10 -14 -10 -9 -1 4 7 2 12 -4 12 -6 0 -9 4 -5 10 5 8
35 4 35 -5z m-206 -90 c-7 -17 -30 -20 -38 -6 -4 5 0 12 6 14 25 10 37 7 32
-8z m53 -1 c-3 -3 -12 -4 -19 -1 -8 3 -5 6 6 6 11 1 17 -2 13 -5z m-147 -31
c-13 -9 -35 -18 -49 -19 -23 -2 -22 -1 9 16 45 23 72 25 40 3z m-70 -37 c0 -9
-30 -14 -35 -6 -4 6 3 10 14 10 12 0 21 -2 21 -4z m-316 -151 c-4 -8 -8 -15
-10 -15 -2 0 -4 7 -4 15 0 8 4 15 10 15 5 0 7 -7 4 -15z m-344 -135 c0 -5 -2
-10 -4 -10 -3 0 -8 5 -11 10 -3 6 -1 10 4 10 6 0 11 -4 11 -10z m-23 -17 c3
-9 -8 -10 -35 -4 -2 1 0 6 3 12 8 12 27 7 32 -8z m-62 -13 c-3 -5 -12 -10 -18
-10 -7 0 -6 4 3 10 19 12 23 12 15 0z m-98 -50 c1 -11 -3 -20 -8 -20 -6 0 -7
5 -4 10 3 6 -2 10 -12 10 -15 0 -16 2 -3 10 22 14 26 12 27 -10z m-180 -66
c-16 -9 -31 -13 -34 -10 -3 3 5 10 18 15 37 15 47 12 16 -5z m-177 -84 c-8 -5
-22 -9 -30 -9 -10 0 -8 3 5 9 27 12 43 12 25 0z m-205 -80 c-3 -5 -14 -10 -23
-9 -14 0 -13 2 3 9 27 11 27 11 20 0z m-128 -57 c-9 -2 -15 -8 -12 -13 7 -11
-32 -23 -46 -14 -13 7 35 33 61 32 10 0 9 -2 -3 -5z m-143 -69 c5 -12 2 -15
-10 -10 -9 3 -36 -3 -61 -14 -70 -31 -76 -24 -8 9 72 35 71 35 79 15z m-184
-73 c0 -5 -11 -12 -24 -15 -13 -3 -32 -9 -43 -13 -10 -3 -15 -2 -10 3 7 7 46
24 75 33 1 1 2 -3 2 -8z m-105 -41 c-3 -5 -12 -10 -18 -10 -7 0 -6 4 3 10 19
12 23 12 15 0z m-18 -46 c-3 -3 -12 -4 -19 -1 -8 3 -5 6 6 6 11 1 17 -2 13 -5z
m-170 -40 c-3 -3 -12 -4 -19 -1 -8 3 -5 6 6 6 11 1 17 -2 13 -5z m-81 -29
c-11 -8 -25 -15 -30 -15 -6 1 0 7 14 15 32 19 40 18 16 0z m54 -15 c0 -5 -4
-10 -10 -10 -5 0 -10 5 -10 10 0 6 5 10 10 10 6 0 10 -4 10 -10z m-125 -20
c-3 -5 -14 -10 -23 -10 -15 0 -15 2 -2 10 20 13 33 13 25 0z m-118 -56 c-3 -3
-12 -4 -19 -1 -8 3 -5 6 6 6 11 1 17 -2 13 -5z m-25 -46 c-7 -7 -12 -8 -12 -2
0 14 12 26 19 19 2 -3 -1 -11 -7 -17z m-135 -24 c-3 -3 -12 -4 -19 -1 -8 3 -5
6 6 6 11 1 17 -2 13 -5z m-87 -29 c-14 -8 -29 -14 -35 -14 -5 0 1 6 15 14 14
8 30 14 35 14 6 0 -1 -6 -15 -14z m-160 -89 c0 -2 -7 -7 -16 -10 -8 -3 -12 -2
-9 4 6 10 25 14 25 6z m-4520 -10 c0 -11 -19 -15 -25 -6 -3 5 1 10 9 10 9 0
16 -2 16 -4z m4380 -30 c0 -2 -7 -7 -16 -10 -8 -3 -12 -2 -9 4 6 10 25 14 25
6z m-70 -31 c-14 -8 -32 -14 -40 -14 -8 0 -1 6 15 14 40 18 57 18 25 0z m-102
-53 c2 -7 -7 -12 -23 -12 -24 0 -26 2 -15 15 14 17 31 16 38 -3z m-228 -86 c0
-3 -4 -8 -10 -11 -5 -3 -10 -1 -10 4 0 6 5 11 10 11 6 0 10 -2 10 -4z m37 -2
c-3 -3 -12 -4 -19 -1 -8 3 -5 6 6 6 11 1 17 -2 13 -5z m-167 -54 c-13 -9 -13
-11 0 -20 11 -7 6 -10 -21 -10 -20 0 -54 -7 -75 -16 -56 -23 -36 -7 33 26 57
28 92 39 63 20z m-230 -100 c0 -5 -5 -10 -11 -10 -5 0 -7 5 -4 10 3 6 8 10 11
10 2 0 4 -4 4 -10z m-60 -41 c-7 -12 -17 -18 -27 -15 -8 3 -22 6 -31 7 -19 1
34 28 56 29 10 0 10 -5 2 -21z m40 1 c0 -5 -2 -10 -4 -10 -3 0 -8 5 -11 10 -3
6 -1 10 4 10 6 0 11 -4 11 -10z m-157 -47 c-7 -2 -19 -2 -25 0 -7 3 -2 5 12 5
14 0 19 -2 13 -5z m-58 -27 c12 -12 12 -15 0 -20 -8 -3 -14 0 -12 7 1 7 -7 11
-18 9 -16 -2 -17 -1 -5 7 19 14 19 14 35 -3z m-120 -46 c-3 -5 -14 -10 -23
-10 -15 0 -15 2 -2 10 20 13 33 13 25 0z m-48 -12 c0 -7 -12 -14 -26 -15 l-26
-1 25 14 c14 7 25 13 26 14 0 0 1 -6 1 -12z m-84 -44 c-3 -8 -12 -13 -20 -10
-8 3 -18 6 -21 7 -8 0 29 17 40 18 4 1 5 -6 1 -15z m41 1 c-4 -8 -11 -15 -16
-15 -6 0 -5 6 2 15 7 8 14 15 16 15 2 0 1 -7 -2 -15z m-374 -139 c0 -2 -7 -6
-15 -10 -8 -3 -15 -1 -15 4 0 6 7 10 15 10 8 0 15 -2 15 -4z m-226 -101 c-7
-16 -24 -21 -24 -6 0 8 7 13 27 20 1 1 0 -6 -3 -14z m-51 -22 c-7 -2 -13 -12
-13 -21 0 -13 -2 -14 -8 -4 -5 7 -16 10 -25 6 -9 -3 -14 -10 -11 -15 3 -5 -4
-9 -15 -9 -12 0 -21 2 -21 5 0 7 82 45 95 44 6 0 4 -3 -2 -6z m-166 -109 c-3
-3 -12 -4 -19 -1 -8 3 -5 6 6 6 11 1 17 -2 13 -5z m-214 -61 c-7 -2 -19 -2
-25 0 -7 3 -2 5 12 5 14 0 19 -2 13 -5z m-13 -17 c0 -9 -30 -14 -35 -6 -4 6 3
10 14 10 12 0 21 -2 21 -4z m-241 -95 c10 -7 8 -9 -10 -8 -13 1 -35 -2 -49 -6
l-25 -8 25 15 c29 18 40 19 59 7z m-379 -161 c-8 -5 -22 -10 -30 -10 -13 0
-13 1 0 10 8 5 22 10 30 10 13 0 13 -1 0 -10z m-163 -70 c-1 -15 -8 -19 -34
-18 -34 1 -36 18 -2 18 10 0 19 5 19 10 0 6 4 10 9 10 6 0 9 -9 8 -20z m-207
-90 c-11 -20 -31 -26 -44 -13 -3 4 4 13 16 20 33 18 40 16 28 -7z m40 0 c0 -5
-4 -10 -10 -10 -5 0 -10 5 -10 10 0 6 5 10 10 10 6 0 10 -4 10 -10z m-107 -28
c3 7 6 3 6 -9 1 -18 -4 -21 -34 -19 -40 4 -61 16 -27 16 12 0 22 5 22 11 0 8
4 8 14 0 11 -9 15 -9 19 1z m-228 -92 c-3 -5 -12 -10 -18 -10 -7 0 -6 4 3 10
19 12 23 12 15 0z m-210 -100 c3 -6 -1 -7 -9 -4 -18 7 -21 14 -7 14 6 0 13 -4
16 -10z m-50 -10 c-3 -5 -12 -10 -18 -10 -7 0 -6 4 3 10 19 12 23 12 15 0z
m-115 -44 c0 -2 -7 -7 -16 -10 -8 -3 -12 -2 -9 4 6 10 25 14 25 6z m-90 -46
c-8 -5 -19 -10 -25 -10 -5 0 -3 5 5 10 8 5 20 10 25 10 6 0 3 -5 -5 -10z
m-110 -49 c-8 -5 -26 -11 -40 -15 -21 -5 -20 -3 5 9 32 15 60 20 35 6z m-93
-35 c-14 -11 -15 -15 -5 -19 7 -3 3 -6 -9 -6 -33 -1 -37 16 -6 27 38 14 41 14
20 -2z m-67 -36 c-13 -9 -13 -11 0 -20 8 -5 11 -10 5 -10 -5 1 -18 7 -28 14
-18 14 -18 14 0 19 31 8 39 7 23 -3z m-90 -35 c-14 -8 -32 -14 -40 -14 -8 0
-1 6 15 14 40 18 57 18 25 0z m-30 -35 c0 -5 -2 -10 -4 -10 -3 0 -8 5 -11 10
-3 6 -1 10 4 10 6 0 11 -4 11 -10z m-23 -36 c-3 -3 -12 -4 -19 -1 -8 3 -5 6 6
6 11 1 17 -2 13 -5z m-147 -14 c-8 -5 -19 -10 -25 -10 -5 0 -3 5 5 10 8 5 20
10 25 10 6 0 3 -5 -5 -10z m-85 -39 c-6 -5 -21 -11 -35 -15 -21 -5 -20 -3 5 9
35 17 42 18 30 6z m-151 -62 c-5 -8 1 -10 19 -7 15 3 24 1 21 -3 -7 -12 -51
-12 -58 0 -6 9 3 21 16 21 5 0 6 -5 2 -11z m-94 -39 c-8 -5 -19 -10 -25 -10
-5 0 -3 5 5 10 8 5 20 10 25 10 6 0 3 -5 -5 -10z m27 -16 c-3 -3 -12 -4 -19
-1 -8 3 -5 6 6 6 11 1 17 -2 13 -5z m-247 -78 c0 -2 -7 -7 -16 -10 -8 -3 -12
-2 -9 4 6 10 25 14 25 6z m-115 -55 c-6 -4 -23 -11 -40 -14 l-30 -6 30 14 c35
16 54 19 40 6z m-95 -67 c0 -2 -9 -4 -21 -4 -11 0 -18 4 -14 10 5 8 35 3 35
-6z m-43 -30 c-3 -3 -12 -4 -19 -1 -8 3 -5 6 6 6 11 1 17 -2 13 -5z m-100 -56
c-3 -8 -6 -5 -6 6 -1 11 2 17 5 13 3 -3 4 -12 1 -19z m-327 -88 c-8 -5 -19
-10 -25 -10 -5 0 -3 5 5 10 8 5 20 10 25 10 6 0 3 -5 -5 -10z m50 -10 c0 -5
-5 -10 -11 -10 -5 0 -7 5 -4 10 3 6 8 10 11 10 2 0 4 -4 4 -10z m-194 -77
c-11 -11 -17 4 -9 23 7 18 8 18 11 1 2 -10 1 -21 -2 -24z m-209 -69 c-3 -3
-12 -4 -19 -1 -8 3 -5 6 6 6 11 1 17 -2 13 -5z m-167 -74 c0 -5 -7 -10 -16
-10 -8 0 -12 5 -9 10 3 6 10 10 16 10 5 0 9 -4 9 -10z m-150 -57 c-8 -3 -18
-11 -22 -17 -4 -6 -10 -7 -15 -3 -9 10 16 27 37 26 13 -1 13 -1 0 -6z m-124
-68 c14 -13 14 -15 -1 -15 -11 0 -15 -5 -12 -14 4 -10 1 -13 -8 -10 -12 5 -14
24 -6 52 2 6 14 1 27 -13z m-335 -142 c13 -16 12 -17 -3 -4 -10 7 -18 15 -18
17 0 8 8 3 21 -13z m-218 -90 c-7 -2 -19 -2 -25 0 -7 3 -2 5 12 5 14 0 19 -2
13 -5z m-536 -249 c-3 -3 -12 -4 -19 -1 -8 3 -5 6 6 6 11 1 17 -2 13 -5z
m-163 -50 c27 -10 0 -44 -35 -44 -18 0 -28 4 -24 10 3 6 0 10 -7 10 -7 1 -2 7
12 15 29 16 33 17 54 9z m-338 -149 c-10 -8 -24 -11 -30 -8 -6 4 0 10 14 14
36 10 37 10 16 -6z m-51 -15 c-3 -5 -14 -10 -23 -10 -15 0 -15 2 -2 10 20 13
33 13 25 0z m-325 -135 c0 -7 -109 -55 -124 -55 -6 1 12 11 41 23 29 13 55 26
59 30 8 8 24 9 24 2z m53 -12 c-7 -2 -19 -2 -25 0 -7 3 -2 5 12 5 14 0 19 -2
13 -5z m-43 -13 c0 -5 -5 -10 -11 -10 -5 0 -7 5 -4 10 3 6 8 10 11 10 2 0 4
-4 4 -10z m-150 -34 c0 -2 -7 -7 -16 -10 -8 -3 -12 -2 -9 4 6 10 25 14 25 6z
m-145 -66 c-3 -5 -12 -10 -18 -10 -7 0 -6 4 3 10 19 12 23 12 15 0z m-99 -49
c-18 -7 -18 -8 -3 -14 9 -3 17 -12 17 -18 0 -8 -4 -8 -12 -1 -7 5 -31 8 -52 7
l-39 -4 29 19 c16 10 40 19 54 19 22 0 22 -1 6 -8z m-104 -38 c-9 -4 -10 -9
-2 -18 8 -10 4 -14 -19 -17 -23 -3 -28 -1 -23 11 7 20 23 31 42 30 11 0 11 -2
2 -6z m-97 -43 c-3 -5 -12 -10 -18 -10 -7 0 -6 4 3 10 19 12 23 12 15 0z m-55
-24 c0 -2 -7 -7 -16 -10 -8 -3 -12 -2 -9 4 6 10 25 14 25 6z m-132 -60 c-56
-28 -102 -41 -93 -26 3 5 14 10 23 11 9 0 35 9 57 19 58 27 69 23 13 -4z
m-218 -91 c-14 -8 -29 -14 -35 -14 -5 0 1 6 15 14 14 8 30 14 35 14 6 0 -1 -6
-15 -14z m37 -11 c-3 -3 -12 -4 -19 -1 -8 3 -5 6 6 6 11 1 17 -2 13 -5z m-87
-38 c0 -3 -4 -8 -10 -11 -5 -3 -10 -1 -10 4 0 6 5 11 10 11 6 0 10 -2 10 -4z
m-70 -36 c0 -5 -7 -7 -15 -4 -8 4 -15 8 -15 10 0 2 7 4 15 4 8 0 15 -4 15 -10z
m-365 -130 c-27 -12 -43 -12 -25 0 8 5 22 9 30 9 10 0 8 -3 -5 -9z m-198 -101
c22 -8 24 -12 13 -19 -20 -13 -33 -12 -25 0 3 6 -4 14 -17 19 -32 13 -6 13 29
0z m-101 -24 c-11 -8 -27 -15 -35 -14 -9 0 -2 7 14 14 39 18 45 18 21 0z m-47
-28 c11 -15 -3 -37 -24 -37 -9 0 -12 28 -6 48 3 7 20 0 30 -11z m-129 -41 c0
-3 -4 -8 -10 -11 -5 -3 -10 -1 -10 4 0 6 5 11 10 11 6 0 10 -2 10 -4z m-73
-52 c2 -5 -15 -9 -37 -9 -36 0 -37 1 -18 11 24 13 50 12 55 -2z m-249 -119
c-2 -2 -19 0 -38 3 -33 5 -33 6 -10 12 20 6 58 -6 48 -15z m-118 -35 c0 -5
-14 -10 -31 -10 -17 0 -28 -4 -24 -10 7 -12 3 -12 -21 -3 -14 5 -11 9 17 19
43 16 59 17 59 4z m30 -4 c0 -3 -4 -8 -10 -11 -5 -3 -10 -1 -10 4 0 6 5 11 10
11 6 0 10 -2 10 -4z m-15 -36 c3 -5 -1 -10 -9 -10 -8 0 -18 5 -21 10 -3 6 1
10 9 10 8 0 18 -4 21 -10z m-160 -10 c-3 -5 -14 -10 -23 -9 -14 0 -13 2 3 9
27 11 27 11 20 0z m49 -5 c-4 -8 -15 -15 -26 -15 -17 0 -18 3 -8 15 7 8 19 15
26 15 8 0 11 -6 8 -15z m-124 -25 c0 -5 -5 -10 -11 -10 -5 0 -7 5 -4 10 3 6 8
10 11 10 2 0 4 -4 4 -10z m-195 -90 c-11 -5 -27 -9 -35 -9 -9 0 -8 4 5 9 11 5
27 9 35 9 9 0 8 -4 -5 -9z m-290 -120 c-3 -5 -12 -10 -18 -10 -7 0 -6 4 3 10
19 12 23 12 15 0z m-115 -66 c0 -2 -11 -3 -24 -2 -14 1 -23 5 -20 9 4 7 44 0
44 -7z m35 -4 c-3 -5 -12 -10 -18 -10 -7 0 -6 4 3 10 19 12 23 12 15 0z m-110
-16 c-9 -9 -19 -13 -23 -10 -3 4 0 11 8 16 24 15 33 11 15 -6z m41 -23 c-4 -6
-15 -11 -24 -11 -15 1 -15 2 1 11 9 6 14 16 11 22 -5 9 -4 9 6 0 7 -6 9 -16 6
-22z m-202 -66 c4 -11 -2 -15 -22 -14 -15 0 -21 3 -13 6 11 5 11 7 0 14 -10 6
-8 9 7 9 12 0 24 -7 28 -15z m-359 -135 c-27 -12 -43 -12 -25 0 8 5 22 9 30 9
10 0 8 -3 -5 -9z m-185 -74 c0 -2 -7 -7 -16 -10 -8 -3 -12 -2 -9 4 6 10 25 14
25 6z m-40 -25 c0 -10 -61 -34 -68 -27 -2 3 7 8 22 12 14 3 23 10 20 15 -3 5
2 9 10 9 9 0 16 -4 16 -9z m-105 -69 c-3 -3 -11 0 -18 7 -9 10 -8 11 6 5 10
-3 15 -9 12 -12z m-178 -58 c-3 -3 -12 -4 -19 -1 -8 3 -5 6 6 6 11 1 17 -2 13
-5z m-52 -14 c-3 -5 -11 -10 -16 -10 -6 0 -7 5 -4 10 3 6 11 10 16 10 6 0 7
-4 4 -10z m-170 -80 c3 -6 -1 -7 -9 -4 -18 7 -21 14 -7 14 6 0 13 -4 16 -10z
m40 0 c3 -5 1 -10 -4 -10 -6 0 -11 5 -11 10 0 6 2 10 4 10 3 0 8 -4 11 -10z
m-229 -75 c-11 -8 -27 -15 -35 -15 -10 0 -7 6 9 14 33 19 50 19 26 1z m-61
-25 c-3 -5 -11 -10 -16 -10 -6 0 -7 5 -4 10 3 6 11 10 16 10 6 0 7 -4 4 -10z
m-36 -24 c-2 -2 -18 -7 -34 -10 l-30 -6 30 14 c26 12 46 14 34 2z m-154 -56
c-3 -5 -14 -10 -23 -9 -14 0 -13 2 3 9 27 11 27 11 20 0z m-20 -38 c-3 -3 -11
0 -18 7 -9 10 -8 11 6 5 10 -3 15 -9 12 -12z m-60 -22 c3 -5 1 -10 -4 -10 -6
0 -11 5 -11 10 0 6 2 10 4 10 3 0 8 -4 11 -10z m-148 -46 c-3 -3 -12 -4 -19
-1 -8 3 -5 6 6 6 11 1 17 -2 13 -5z m-167 -62 c0 -10 -100 -55 -107 -48 -3 3
11 13 33 21 21 9 46 20 54 25 19 11 20 11 20 2z m-1100 -411 c-34 -11 -100
-21 -100 -16 0 8 64 23 95 23 29 0 29 0 5 -7z m-321 -85 c-2 -2 -17 -6 -34
-10 -22 -5 -26 -4 -15 4 14 9 59 15 49 6z m-65 -35 c4 -5 -3 -7 -14 -4 -23 6
-26 13 -6 13 8 0 17 -4 20 -9z m-507 -117 c-3 -3 -12 -4 -19 -1 -8 3 -5 6 6 6
11 1 17 -2 13 -5z m73 2 c0 -3 -4 -8 -10 -11 -5 -3 -10 -1 -10 4 0 6 5 11 10
11 6 0 10 -2 10 -4z"/>
<path d="M23150 15318 c0 -11 -13 -18 -42 -23 -53 -9 -122 -48 -166 -94 -18
-19 -30 -27 -26 -18 4 12 1 17 -11 17 -12 0 -15 -5 -10 -20 5 -15 0 -21 -20
-26 -20 -5 -23 -9 -13 -15 11 -8 11 -11 -1 -18 -8 -5 -11 -16 -8 -25 5 -12 0
-16 -18 -16 l-24 0 2 -122 c2 -102 5 -123 17 -123 10 0 17 -13 20 -35 11 -75
104 -181 204 -230 57 -28 77 -33 143 -33 65 0 89 4 140 27 76 35 153 112 191
193 25 53 27 68 27 180 -1 97 -4 125 -17 140 -8 10 -19 28 -22 39 -4 12 -15
29 -26 39 -11 10 -20 23 -20 29 0 6 -26 30 -58 53 -55 41 -150 73 -214 73 -13
0 -29 5 -36 12 -9 9 -12 8 -12 -4z m183 -139 c64 -43 128 -134 112 -158 -3 -5
2 -11 10 -15 22 -8 22 -136 0 -136 -14 0 -20 -31 -18 -88 1 -10 -2 -10 -14 0
-12 9 -16 9 -24 -3 -5 -8 -7 -22 -5 -31 8 -34 -9 -17 -57 57 -27 41 -53 75
-58 75 -20 0 -7 19 26 38 40 24 50 54 41 117 -5 31 -12 45 -23 45 -8 0 -17 9
-20 20 -5 18 -14 20 -102 20 -66 0 -91 -3 -81 -10 13 -9 13 -10 0 -10 -8 0
-21 4 -29 9 -18 12 -41 3 -41 -15 0 -8 -5 -13 -12 -11 -8 1 -12 -34 -12 -128
-1 -98 2 -129 12 -127 7 1 12 -8 12 -20 0 -18 -2 -20 -9 -9 -8 12 -11 9 -17
-12 -7 -32 3 -49 16 -27 8 13 10 12 10 -2 0 -14 9 -18 40 -18 l40 0 0 75 c0
69 2 75 20 75 29 0 48 -21 42 -44 -4 -15 -1 -18 11 -13 12 4 21 -3 33 -24 8
-17 11 -28 5 -25 -7 4 -11 -1 -11 -13 0 -12 3 -20 8 -19 18 4 108 -16 114 -25
11 -18 -1 -27 -38 -27 -32 0 -38 -7 -35 -35 1 -11 -171 -12 -207 -1 -12 4 -22
14 -22 22 0 8 -7 14 -15 14 -20 0 -64 50 -65 73 0 9 -4 17 -9 17 -20 0 -33 74
-29 155 5 97 31 151 100 207 61 49 67 52 123 58 69 7 139 -5 178 -31z m-116
-75 c-3 -3 -12 -4 -19 -1 -8 3 -5 6 6 6 11 1 17 -2 13 -5z m45 -82 c16 -16 -5
-62 -28 -62 -13 0 -14 3 -5 14 10 12 3 14 -41 12 -51 -1 -53 0 -56 28 l-4 29
61 -5 c34 -2 67 -10 73 -16z m-95 -58 c-3 -3 -12 -4 -19 -1 -8 3 -5 6 6 6 11
1 17 -2 13 -5z"/>
<path d="M16131 15084 c0 -11 3 -14 6 -6 3 7 2 16 -1 19 -3 4 -6 -2 -5 -13z"/>
<path d="M12080 14981 c-6 -12 -7 -21 -1 -21 10 0 24 30 17 37 -2 3 -9 -5 -16
-16z"/>
<path d="M22363 14987 c2 -20 19 -25 26 -6 2 6 -1 9 -7 5 -6 -3 -13 0 -16 6
-3 7 -5 5 -3 -5z"/>
<path d="M15907 14556 c-4 -10 -1 -13 8 -9 8 3 12 9 9 14 -7 12 -11 11 -17 -5z"/>
<path d="M13860 14510 c0 -5 7 -7 15 -4 8 4 15 8 15 10 0 2 -7 4 -15 4 -8 0
-15 -4 -15 -10z"/>
<path d="M11706 13992 c-4 -13 -5 -26 -2 -29 10 -11 18 4 14 29 l-4 23 -8 -23z"/>
<path d="M15663 13878 c-2 -16 1 -18 10 -9 7 7 8 14 1 21 -6 6 -10 2 -11 -12z"/>
<path d="M11658 13843 c7 -3 16 -2 19 1 4 3 -2 6 -13 5 -11 0 -14 -3 -6 -6z"/>
<path d="M11151 12524 c0 -11 3 -14 6 -6 3 7 2 16 -1 19 -3 4 -6 -2 -5 -13z"/>
<path d="M12625 11261 c-10 -17 -13 -93 -3 -83 9 9 21 92 13 92 -2 0 -6 -4
-10 -9z"/>
<path d="M10520 10850 c0 -6 7 -10 15 -10 8 0 15 2 15 4 0 2 -7 6 -15 10 -8 3
-15 1 -15 -4z"/>
<path d="M28160 10770 c0 -5 5 -10 10 -10 6 0 10 5 10 10 0 6 -4 10 -10 10 -5
0 -10 -4 -10 -10z"/>
<path d="M10285 10220 c-3 -5 -1 -10 4 -10 6 0 11 5 11 10 0 6 -2 10 -4 10 -3
0 -8 -4 -11 -10z"/>
<path d="M26410 10010 c0 -5 5 -10 10 -10 6 0 10 5 10 10 0 6 -4 10 -10 10 -5
0 -10 -4 -10 -10z"/>
<path d="M12001 9514 c0 -11 3 -14 6 -6 3 7 2 16 -1 19 -3 4 -6 -2 -5 -13z"/>
<path d="M21120 7719 c0 -5 5 -7 10 -4 6 3 10 8 10 11 0 2 -4 4 -10 4 -5 0
-10 -5 -10 -11z"/>
<path d="M5615 6661 c-128 -34 -240 -138 -280 -260 -95 -289 183 -574 485
-497 156 40 263 151 295 303 29 139 -17 273 -127 367 -74 63 -140 88 -248 92
-52 2 -108 0 -125 -5z m236 -147 c61 -32 116 -97 135 -160 18 -60 18 -78 -2
-145 -20 -67 -110 -162 -165 -173 -109 -23 -207 -10 -260 34 -49 40 -80 76
-86 100 -3 14 -9 30 -14 35 -22 28 -21 95 1 154 27 73 69 122 134 156 71 36
185 36 257 -1z"/>
<path d="M5566 6453 c-10 -10 -7 -361 3 -367 5 -3 23 -3 40 0 31 6 31 7 31 68
0 72 9 91 38 82 27 -9 81 -77 91 -114 7 -24 13 -28 60 -32 60 -6 71 2 45 33
-11 12 -25 33 -33 47 -8 14 -20 34 -28 46 -12 19 -10 25 17 59 16 21 30 46 30
55 0 10 7 20 15 24 20 7 13 51 -9 50 -15 -2 -20 7 -17 33 1 8 -38 11 -130 12
-73 1 -135 4 -139 6 -4 3 -10 2 -14 -2z m204 -78 c22 -26 8 -50 -28 -47 -18 1
-44 -6 -59 -15 -15 -10 -24 -12 -19 -5 4 7 1 14 -8 18 -10 4 -16 18 -16 35 0
29 1 29 59 29 39 0 63 -5 71 -15z"/>
<path d="M14200 4730 c0 -5 5 -10 11 -10 5 0 7 5 4 10 -3 6 -8 10 -11 10 -2 0
-4 -4 -4 -10z"/>
<path d="M13165 4340 c3 -5 10 -10 16 -10 5 0 9 5 9 10 0 6 -7 10 -16 10 -8 0
-12 -4 -9 -10z"/>
<path d="M11990 3800 c0 -5 5 -10 11 -10 5 0 7 5 4 10 -3 6 -8 10 -11 10 -2 0
-4 -4 -4 -10z"/>
</g>
</svg>
