<?xml version="1.0" standalone="no"?>
<!DOCTYPE svg PUBLIC "-//W3C//DTD SVG 20010904//EN"
 "http://www.w3.org/TR/2001/REC-SVG-20010904/DTD/svg10.dtd">
<svg version="1.0" xmlns="http://www.w3.org/2000/svg"
 width="2100.000000pt" height="1048.000000pt" viewBox="0 0 2100.000000 1048.000000"
 preserveAspectRatio="xMidYMid meet">

<g transform="translate(0.000000,1048.000000) scale(0.100000,-0.100000)"
fill="#000000" stroke="none">
<path d="M20555 10447 c-117 -39 -237 -98 -353 -173 -46 -30 -89 -59 -95 -64
-7 -5 -48 -37 -92 -71 -109 -85 -356 -333 -445 -449 -196 -254 -387 -604 -470
-865 -25 -78 -122 -331 -157 -410 -286 -646 -693 -1086 -1145 -1241 -343 -117
-787 -42 -1333 223 -244 119 -618 345 -760 460 -75 61 -370 298 -465 375 -52
41 -124 100 -160 129 -553 453 -1042 827 -1329 1017 -276 182 -754 422 -1032
517 -217 74 -500 135 -629 135 -62 0 -101 46 -169 199 -91 208 -130 227 -207
106 -10 -16 -38 -56 -62 -87 -104 -138 -145 -134 -257 28 -100 144 -117 145
-161 11 -52 -158 -201 -319 -379 -410 -82 -41 -95 -61 -105 -164 -9 -98 -25
-145 -62 -183 -31 -32 -77 -70 -84 -70 -12 0 -115 -82 -128 -103 -52 -80 -10
-178 107 -245 29 -17 98 -73 154 -125 189 -175 296 -247 368 -247 17 0 93 16
170 36 110 28 153 34 202 31 129 -10 219 -99 243 -243 19 -110 -6 -181 -75
-214 -53 -26 -86 -25 -203 4 -185 47 -332 56 -497 31 -218 -32 -418 -125 -538
-249 -84 -86 -119 -192 -97 -289 18 -77 68 -164 127 -224 62 -62 88 -77 176
-99 153 -38 242 25 263 186 8 66 26 105 56 121 52 28 190 -7 388 -98 599 -276
794 -333 1114 -320 235 9 344 52 497 193 124 115 164 131 235 98 18 -9 125
-107 236 -218 112 -112 237 -232 278 -267 346 -296 679 -488 1035 -597 229
-71 370 -91 730 -102 513 -17 720 -52 934 -160 153 -76 362 -234 459 -344 90
-103 136 -193 307 -601 140 -334 299 -622 478 -864 211 -286 610 -681 968
-958 l106 -82 7 -302 c10 -446 23 -540 97 -679 96 -180 309 -309 515 -310 99
0 98 -1 100 197 2 176 13 263 60 447 14 55 23 110 20 122 -4 13 -36 58 -72
100 -163 193 -187 255 -203 526 -12 209 -17 220 -125 298 -194 141 -302 233
-344 295 -104 149 -122 253 -126 714 -2 185 -9 383 -15 441 -26 241 -85 534
-146 730 -67 213 -125 339 -201 437 -84 107 -106 147 -98 179 9 35 70 96 170
170 107 79 126 96 219 189 198 198 356 474 580 1015 149 360 226 505 355 674
233 304 495 495 1021 744 80 38 173 88 206 110 206 140 321 400 268 605 -19
75 -47 128 -92 178 -83 92 -180 108 -338 56z"/>
<path d="M13425 5090 c-166 -22 -280 -103 -336 -237 l-24 -58 -3 -2357 -2
-2358 701 0 701 0 -8 637 -7 636 168 -6 c93 -4 204 -7 248 -7 l80 0 -7 -637
-7 -636 443 6 c244 4 559 7 700 7 l257 0 -5 277 c-2 153 -11 1191 -19 2308
-10 1290 -19 2054 -26 2094 -21 130 -99 234 -214 287 -120 55 -104 54 -1392
53 -653 -1 -1215 -5 -1248 -9z m1381 -595 c57 -29 98 -82 114 -146 7 -31 10
-397 8 -1214 l-3 -1170 -230 0 -230 0 -3 1185 c-2 882 0 1196 9 1228 13 49 82
116 133 131 63 19 149 13 202 -14z"/>
<path d="M11375 5079 c-407 -3 -1358 -7 -2113 -8 -1521 -1 -1446 2 -1582 -66
-76 -38 -151 -113 -183 -183 l-22 -47 3 -2369 c1 -1303 3 -2370 5 -2371 1 -2
306 0 677 4 l675 6 -3 1860 c-1 1023 1 1979 6 2125 7 241 10 269 29 306 29 55
78 100 130 120 54 21 154 15 203 -13 56 -31 98 -94 104 -155 3 -29 11 -991 17
-2138 6 -1147 13 -2087 15 -2089 2 -2 216 -7 476 -12 260 -4 576 -10 702 -13
l229 -6 -7 673 c-29 2943 -32 3603 -18 3638 59 146 277 170 417 48 67 -59 65
-35 65 -697 0 -329 3 -1281 7 -2115 l6 -1517 689 0 688 0 0 528 c0 1274 -21
4110 -31 4172 -32 200 -165 310 -389 322 -30 2 -388 0 -795 -3z"/>
<path d="M3720 4848 c0 -659 42 -4455 50 -4523 18 -150 93 -251 213 -287 56
-17 2610 -13 2702 4 183 34 279 143 304 348 10 74 -13 4628 -23 4637 -6 6
-205 10 -966 16 l-385 4 0 -2091 c0 -1945 -1 -2095 -17 -2146 -38 -121 -108
-184 -203 -184 -90 1 -168 57 -214 154 l-26 55 -7 825 c-4 454 -12 1396 -17
2094 -6 698 -13 1271 -15 1274 -5 4 -1057 31 -1263 32 l-133 0 0 -212z"/>
<path d="M5 2888 c3 -1179 8 -2311 11 -2515 l6 -373 689 0 689 0 2 627 3 628
225 7 c124 3 457 11 740 18 288 6 535 16 560 22 127 30 246 123 295 230 50
112 50 67 31 1654 -9 813 -21 1502 -26 1531 -11 66 -50 163 -81 201 -34 42
-86 76 -143 95 -45 16 -180 17 -1528 17 l-1478 0 5 -2142z m1735 1551 c46 -23
94 -74 116 -124 25 -58 33 -536 25 -1485 l-6 -765 -29 -52 c-31 -56 -81 -97
-137 -113 -19 -6 -98 -10 -176 -10 l-143 0 0 1178 c0 649 3 1227 6 1285 l7
106 106 3 c138 4 188 -1 231 -23z"/>
<path d="M16907 720 c-91 -23 -168 -85 -215 -173 -23 -45 -27 -63 -27 -142 0
-78 4 -97 28 -147 73 -149 246 -218 407 -163 76 25 159 108 189 190 29 77 26
186 -8 257 -64 134 -231 214 -374 178z m194 -67 c59 -26 107 -76 137 -142 21
-45 24 -64 20 -125 -7 -111 -57 -185 -158 -237 -97 -49 -240 -21 -316 63 -53
59 -74 112 -74 188 0 67 20 127 59 176 75 95 216 128 332 77z"/>
<path d="M16840 395 l0 -175 30 0 30 0 0 75 0 75 29 0 c38 0 67 -25 105 -91
27 -45 37 -55 64 -57 18 -2 32 1 32 6 0 12 -79 124 -99 139 -14 11 -14 12 2
13 10 0 32 13 48 29 42 42 41 99 -2 135 -29 24 -37 26 -135 26 l-104 0 0 -175z
m180 122 c32 -16 40 -65 14 -84 -10 -7 -44 -13 -76 -13 l-58 0 0 55 0 55 48 0
c26 0 58 -6 72 -13z"/>
</g>
</svg>
