<?xml version="1.0" standalone="no"?>
<!DOCTYPE svg PUBLIC "-//W3C//DTD SVG 20010904//EN"
 "http://www.w3.org/TR/2001/REC-SVG-20010904/DTD/svg10.dtd">
<svg version="1.0" xmlns="http://www.w3.org/2000/svg"
 width="1563.000000pt" height="1563.000000pt" viewBox="0 0 1563.000000 1563.000000"
 preserveAspectRatio="xMidYMid meet">

<g transform="translate(0.000000,1563.000000) scale(0.100000,-0.100000)"
fill="#000000" stroke="none">
<path d="M6292 12318 c-15 -4 -38 -17 -50 -28 -20 -19 -72 -119 -72 -139 0 -5
-9 -26 -19 -48 -25 -50 -61 -131 -61 -138 0 -3 -16 -39 -35 -81 -19 -41 -35
-77 -35 -79 0 -3 -12 -30 -26 -62 -14 -32 -32 -71 -39 -88 -7 -16 -22 -51 -34
-77 -11 -26 -21 -50 -21 -53 0 -2 -11 -28 -24 -57 -13 -29 -47 -107 -76 -173
-28 -66 -60 -139 -71 -162 -10 -24 -19 -45 -19 -48 0 -3 -10 -27 -21 -53 -12
-26 -27 -60 -34 -77 -7 -16 -25 -56 -39 -88 -14 -32 -26 -60 -26 -62 0 -2 -14
-35 -31 -72 -17 -38 -39 -88 -49 -113 -10 -25 -30 -72 -45 -105 -15 -33 -31
-69 -35 -80 -4 -11 -17 -40 -28 -65 -11 -25 -27 -61 -35 -80 -25 -59 -118
-272 -140 -320 -12 -25 -21 -66 -22 -92 0 -38 5 -52 29 -77 l30 -31 927 0 928
0 35 -34 c47 -43 48 -89 6 -181 -16 -36 -30 -68 -30 -70 0 -2 -11 -28 -24 -57
-13 -29 -45 -102 -71 -163 -26 -60 -62 -143 -81 -183 -19 -41 -34 -76 -34 -78
0 -2 -10 -26 -21 -52 -12 -26 -27 -60 -34 -77 -40 -93 -150 -347 -170 -390
-23 -52 -48 -108 -70 -160 -7 -16 -22 -51 -34 -77 -11 -26 -21 -50 -21 -53 0
-2 -13 -33 -29 -67 -15 -35 -38 -85 -51 -113 -12 -27 -33 -74 -46 -103 -13
-29 -24 -55 -24 -57 0 -2 -13 -34 -30 -70 -16 -36 -30 -68 -30 -70 0 -2 -14
-35 -31 -72 -17 -38 -39 -88 -49 -113 -10 -25 -30 -72 -45 -105 -42 -93 -62
-137 -78 -175 -8 -19 -27 -61 -41 -93 -14 -32 -26 -60 -26 -62 0 -3 -16 -40
-36 -82 -20 -43 -47 -105 -61 -138 -14 -33 -36 -84 -49 -113 -13 -29 -24 -55
-24 -57 0 -2 -12 -30 -26 -62 -14 -32 -33 -74 -41 -93 -8 -19 -23 -53 -33 -75
-10 -22 -34 -76 -53 -120 -19 -44 -45 -102 -57 -130 -12 -27 -29 -65 -36 -82
-8 -18 -20 -48 -28 -65 -7 -18 -23 -53 -34 -78 -10 -25 -22 -54 -26 -66 -3
-11 -18 -32 -32 -45 l-26 -24 -634 0 -634 0 -27 28 c-23 23 -28 36 -27 77 0
28 9 68 21 92 12 24 28 59 36 78 8 19 24 55 35 80 11 25 52 122 92 215 39 94
80 188 90 210 40 88 60 135 60 140 0 2 11 28 24 57 90 198 95 231 42 284 l-34
34 -1306 0 c-1124 0 -1311 -2 -1335 -15 -30 -15 -49 -49 -126 -230 -26 -60
-57 -132 -70 -160 -52 -114 -65 -145 -65 -155 0 -5 -8 -24 -18 -42 -10 -18
-24 -49 -32 -68 -7 -19 -27 -64 -43 -100 -16 -36 -37 -85 -47 -110 -21 -52
-64 -148 -91 -203 -10 -22 -19 -43 -19 -48 0 -5 -18 -48 -40 -95 -22 -47 -40
-88 -40 -91 0 -3 -16 -42 -36 -87 -40 -90 -56 -128 -80 -183 -9 -21 -24 -56
-34 -78 -10 -22 -25 -56 -33 -75 -8 -19 -24 -55 -35 -80 -11 -25 -41 -94 -67
-155 -26 -60 -56 -130 -67 -155 -25 -56 -47 -109 -58 -135 -4 -11 -19 -45 -33
-75 -14 -30 -34 -77 -45 -105 -11 -27 -33 -79 -50 -115 -47 -103 -72 -159 -72
-165 0 -2 -13 -34 -30 -70 -16 -36 -30 -68 -30 -70 0 -3 -16 -40 -36 -82 -20
-43 -42 -94 -49 -113 -7 -19 -29 -70 -49 -113 -20 -42 -36 -79 -36 -82 0 -5
-16 -42 -62 -145 -11 -25 -24 -54 -29 -65 -5 -11 -29 -67 -55 -125 -26 -60
-46 -121 -46 -142 -1 -51 33 -95 80 -105 20 -4 1562 -8 3427 -8 2994 0 3393 2
3419 15 26 13 96 123 96 151 0 5 20 52 45 105 25 52 45 97 45 100 0 4 15 39
60 139 10 22 25 56 33 75 37 87 117 270 137 315 12 28 26 59 30 70 4 11 16 38
25 60 10 22 24 56 32 75 8 19 23 53 33 75 10 22 25 56 33 75 28 67 89 205 123
278 19 41 34 77 34 81 0 5 6 21 14 37 17 35 34 74 121 274 37 85 77 178 90
205 44 97 65 145 65 150 0 2 14 34 30 70 17 36 30 68 30 70 0 2 13 33 29 67
15 35 40 89 55 121 14 32 26 60 26 62 0 5 15 39 60 140 10 22 25 56 33 75 8
19 27 61 41 93 14 32 26 60 26 62 0 3 21 51 46 107 26 57 53 118 60 136 39 91
65 151 92 213 12 25 30 68 41 95 10 27 35 83 54 124 19 41 49 109 67 150 18
41 43 99 56 128 13 29 24 55 24 57 0 2 14 35 31 72 17 38 39 88 49 113 10 25
30 72 45 105 42 94 62 137 78 175 61 144 83 194 113 258 19 41 34 76 34 78 0
3 9 25 20 50 50 111 86 193 100 229 4 11 17 40 28 65 12 25 27 61 35 80 14 33
99 228 137 315 10 22 25 56 33 75 8 19 27 61 41 93 14 32 26 60 26 62 0 3 21
51 46 107 72 163 73 166 90 206 9 20 29 65 45 100 16 35 29 66 29 70 0 5 11
30 24 58 13 27 61 135 106 239 88 204 117 270 131 297 5 10 9 35 9 57 0 53
-43 97 -103 106 -24 4 -149 5 -279 3 -219 -3 -238 -4 -258 -23 -23 -21 -36
-47 -115 -230 -26 -60 -56 -130 -67 -155 -29 -66 -49 -112 -58 -135 -4 -11
-17 -40 -29 -63 -11 -24 -21 -48 -21 -53 0 -4 -11 -32 -24 -61 -13 -29 -45
-102 -71 -163 -26 -60 -54 -126 -62 -145 -9 -19 -22 -50 -29 -67 -8 -18 -21
-50 -30 -70 -9 -21 -20 -47 -24 -58 -13 -32 -89 -209 -156 -362 -22 -52 -45
-106 -54 -128 -4 -11 -15 -36 -23 -55 -8 -19 -35 -82 -60 -140 -25 -58 -57
-132 -71 -165 -35 -79 -44 -101 -55 -127 -5 -13 -18 -44 -30 -70 -12 -26 -21
-50 -21 -53 0 -5 -12 -33 -60 -140 -10 -22 -39 -89 -65 -150 -25 -60 -56 -130
-67 -155 -11 -25 -24 -54 -28 -65 -4 -11 -22 -51 -39 -88 -17 -37 -31 -72 -31
-78 0 -5 -4 -17 -10 -27 -5 -9 -37 -82 -71 -162 -33 -80 -67 -160 -75 -177
-17 -39 -32 -76 -69 -163 -15 -36 -36 -83 -46 -105 -10 -22 -37 -85 -60 -140
-23 -55 -52 -124 -65 -153 -13 -29 -24 -55 -24 -57 0 -3 -10 -27 -21 -53 -12
-26 -27 -60 -34 -77 -7 -16 -22 -51 -33 -76 -12 -25 -30 -68 -40 -95 -11 -27
-32 -75 -46 -106 -14 -32 -37 -83 -51 -113 -14 -31 -25 -61 -25 -68 0 -7 -4
-17 -8 -23 -5 -5 -15 -25 -22 -44 -8 -19 -24 -57 -36 -85 -12 -27 -48 -111
-79 -185 -32 -74 -68 -159 -81 -188 -13 -29 -24 -55 -24 -57 0 -2 -13 -34 -30
-70 -16 -36 -30 -68 -30 -70 0 -2 -13 -34 -30 -70 -16 -36 -30 -68 -30 -70 0
-5 -111 -263 -152 -355 -11 -25 -24 -54 -29 -65 -29 -70 -133 -316 -145 -342
-8 -18 -21 -50 -30 -70 -9 -21 -22 -51 -30 -67 -8 -16 -14 -34 -14 -41 0 -6
-16 -30 -36 -53 l-36 -42 -2763 0 -2764 0 -35 34 c-25 23 -36 42 -36 62 0 30
49 162 82 222 10 18 18 37 18 42 0 5 11 33 24 62 13 29 36 82 51 118 35 84 51
122 86 197 16 34 29 64 29 67 0 4 9 28 21 54 12 26 25 56 29 67 4 11 15 36 23
55 8 19 43 100 77 180 33 80 70 164 81 187 10 24 19 45 19 48 0 2 14 34 30 70
16 36 30 68 30 70 0 2 11 28 24 57 14 30 34 76 45 104 24 63 57 136 82 187 10
22 19 43 19 47 0 5 14 40 31 77 17 37 36 79 41 93 14 32 13 30 117 275 66 152
98 216 118 232 l28 23 647 0 646 0 31 -31 c24 -24 31 -39 31 -69 0 -41 -5 -56
-51 -157 -16 -34 -29 -68 -29 -75 0 -8 -4 -18 -8 -23 -5 -6 -28 -55 -52 -110
-48 -112 -71 -165 -106 -243 -13 -29 -24 -55 -24 -57 0 -2 -12 -30 -26 -62
-14 -32 -32 -71 -39 -88 -7 -16 -33 -77 -59 -133 -51 -116 -54 -134 -27 -178
42 -68 -51 -64 1352 -64 975 0 1279 3 1315 12 48 13 70 36 94 98 7 19 23 58
36 85 12 28 43 100 69 160 26 61 56 130 67 155 11 25 26 60 34 78 8 17 20 47
28 65 8 17 49 113 91 212 42 99 86 200 97 225 11 25 27 61 35 80 8 19 23 53
33 75 10 22 24 56 31 75 7 19 23 58 35 85 12 28 50 113 83 190 34 77 66 148
71 157 6 10 10 22 10 28 0 6 18 49 40 96 22 47 40 89 40 93 0 4 11 31 25 59
14 29 25 54 25 57 0 2 12 30 26 62 14 32 33 74 41 93 8 19 24 55 35 80 11 25
24 54 28 65 9 22 28 68 58 135 10 25 47 110 82 190 34 80 70 163 80 185 10 22
39 90 65 150 26 61 65 149 86 198 22 48 39 89 39 92 0 3 10 27 21 53 12 26 27
61 34 77 48 114 70 166 90 210 12 28 41 95 65 150 23 55 55 128 71 162 16 34
29 64 29 67 0 3 14 35 30 71 17 36 30 68 30 70 0 3 9 25 20 50 39 87 72 165
127 295 8 19 26 60 40 90 14 30 29 64 33 75 4 11 15 36 23 55 111 256 115 273
81 325 -37 57 -5 55 -1003 55 l-919 0 -31 26 c-53 44 -43 86 80 362 10 23 28
62 39 87 11 25 29 64 39 88 11 24 41 92 66 152 26 61 58 134 71 163 13 29 24
55 24 58 0 3 14 35 31 72 17 37 35 76 40 87 47 112 73 163 91 182 l21 23 3827
0 3827 0 23 -25 c43 -46 33 -95 -60 -310 -46 -104 -98 -226 -117 -270 -37 -88
-58 -135 -79 -179 -8 -16 -14 -33 -14 -37 0 -5 -13 -37 -28 -71 -16 -35 -57
-130 -93 -213 -35 -82 -75 -163 -90 -180 l-27 -30 -1024 -5 c-563 -3 -1033 -9
-1045 -14 -15 -5 -35 -35 -58 -82 -19 -41 -35 -77 -35 -79 0 -3 -9 -25 -20
-50 -11 -25 -29 -65 -40 -90 -11 -25 -20 -47 -20 -50 0 -2 -13 -34 -30 -70
-16 -36 -30 -68 -30 -70 0 -4 -35 -85 -106 -243 -13 -29 -24 -56 -24 -60 0 -4
-13 -34 -30 -67 -16 -33 -30 -67 -30 -76 0 -8 -4 -19 -9 -25 -4 -5 -32 -65
-61 -134 -29 -69 -63 -149 -76 -178 -13 -29 -24 -55 -24 -57 0 -5 -15 -39 -60
-140 -10 -22 -25 -56 -33 -75 -8 -19 -27 -61 -41 -93 -14 -32 -26 -61 -26 -65
0 -4 -25 -64 -56 -132 -30 -69 -59 -134 -64 -145 -4 -11 -17 -41 -29 -67 -12
-26 -21 -50 -21 -53 0 -3 -18 -44 -40 -91 -22 -47 -40 -88 -40 -91 0 -2 -14
-37 -31 -76 -17 -40 -37 -85 -44 -102 -7 -16 -22 -51 -34 -77 -11 -26 -21 -50
-21 -53 0 -2 -12 -30 -26 -62 -14 -32 -32 -73 -40 -90 -8 -18 -20 -48 -28 -65
-8 -18 -26 -62 -41 -98 -15 -36 -36 -85 -47 -110 -27 -60 -64 -147 -93 -215
-7 -16 -19 -46 -28 -65 -8 -19 -27 -64 -42 -100 -14 -36 -37 -89 -51 -118 -13
-29 -24 -55 -24 -57 0 -2 -12 -30 -26 -62 -14 -32 -32 -71 -39 -88 -7 -16 -22
-51 -34 -77 -11 -26 -21 -50 -21 -53 0 -2 -11 -28 -24 -57 -13 -29 -45 -102
-71 -163 -26 -60 -56 -130 -67 -155 -11 -25 -26 -58 -33 -75 -7 -16 -19 -46
-28 -65 -8 -19 -50 -116 -92 -215 -42 -99 -84 -196 -92 -215 -8 -19 -19 -44
-23 -55 -10 -24 -32 -76 -55 -130 -10 -22 -23 -53 -30 -70 -7 -16 -22 -51 -34
-77 -12 -26 -21 -49 -21 -52 0 -3 -11 -29 -24 -58 -13 -29 -34 -75 -46 -103
-12 -27 -33 -74 -46 -103 -13 -29 -24 -57 -24 -62 0 -5 -9 -25 -20 -45 -11
-20 -20 -40 -20 -45 0 -5 -11 -33 -24 -62 -13 -29 -45 -102 -71 -163 -26 -60
-54 -126 -62 -145 -9 -19 -21 -48 -28 -65 -7 -16 -27 -64 -45 -105 -18 -41
-38 -88 -45 -105 -7 -16 -22 -51 -34 -77 -11 -26 -21 -50 -21 -52 0 -3 -16
-40 -35 -83 -20 -43 -40 -87 -44 -98 -5 -11 -18 -41 -30 -67 -12 -26 -21 -50
-21 -53 0 -3 -9 -27 -21 -53 -12 -26 -26 -58 -31 -72 -6 -14 -19 -41 -29 -61
-11 -20 -19 -50 -19 -65 0 -39 34 -92 66 -104 43 -17 453 -25 497 -11 36 12
97 74 97 98 0 7 4 21 9 31 14 25 51 111 51 117 0 2 12 30 26 62 34 76 47 105
79 183 15 36 35 83 45 105 17 37 30 69 64 148 7 17 23 53 35 79 11 26 21 52
21 58 0 5 8 24 18 42 10 18 33 69 52 113 18 44 44 105 57 135 24 53 32 72 52
123 5 12 18 42 29 67 25 56 38 87 97 225 26 61 58 134 71 163 13 29 24 55 24
57 0 3 10 27 21 53 36 80 47 105 69 162 12 30 32 78 45 105 13 28 38 84 55
125 43 100 60 141 71 165 5 11 29 70 55 130 25 61 54 128 64 150 10 22 30 69
45 105 15 36 35 83 45 105 10 22 32 74 50 115 18 41 43 99 56 128 13 29 24 58
24 65 0 7 4 17 9 23 4 5 45 97 91 204 45 107 90 213 100 235 10 22 32 74 50
115 18 41 38 89 45 105 8 17 28 64 45 105 18 41 38 89 45 105 7 17 22 51 34
77 11 26 21 50 21 53 0 3 9 27 21 53 12 26 25 56 29 67 4 11 19 45 33 75 14
30 53 120 86 200 34 80 66 154 70 165 5 11 16 36 24 55 23 54 78 182 92 215 7
17 34 80 60 140 26 61 58 133 71 160 12 28 37 86 54 130 18 44 42 103 55 130
31 69 107 246 125 290 8 20 26 63 56 133 9 20 22 51 29 67 95 225 130 298 156
315 26 20 49 20 1045 20 l1017 0 32 24 c24 18 47 59 94 168 35 79 71 161 81
183 49 110 60 135 60 140 0 2 13 33 29 67 42 94 65 145 101 228 18 41 43 99
56 128 13 29 24 55 24 57 0 3 15 38 34 79 19 41 49 107 66 147 17 41 40 93 51
116 10 24 19 45 19 48 0 5 18 46 65 150 13 28 30 67 39 88 9 20 22 52 30 70 8
17 31 70 51 117 21 47 46 105 57 130 11 25 26 59 33 75 20 48 41 97 63 145 83
188 112 262 112 286 0 23 -26 81 -42 96 -7 7 -8971 12 -8996 6z"/>
</g>
</svg>
